<svg width="324" height="305" viewBox="0 0 324 305" fill="none" xmlns="http://www.w3.org/2000/svg">
<path d="M293.005 25.6908C314.337 52.1786 307.823 101.5 304.319 147.318C300.815 193.135 300.523 235.457 279.19 264.214C257.785 292.992 215.48 308.097 177.254 304.014C139.027 299.863 104.953 276.454 71.3195 247.676C37.6866 218.898 4.44816 184.849 5.44746 151.752C6.44675 118.655 41.6709 86.6093 75.3167 60.1258C108.963 33.6423 141.03 12.7343 181.68 4.14375C222.329 -4.44677 271.689 -0.792689 293.005 25.6908Z" fill="#F7F7F7"/>
<path d="M290.736 62.3903H33.6379V248.873H290.736V62.3903Z" fill="#D7E0FF"/>
<path d="M290.736 62.3903H33.6379V82.8394H290.736V62.3903Z" fill="#EAF0FF"/>
<path d="M244.541 72.6148C244.542 73.6212 244.244 74.6053 243.685 75.4424C243.127 76.2795 242.332 76.9322 241.403 77.3177C240.473 77.7032 239.45 77.8043 238.463 77.6082C237.476 77.412 236.569 76.9275 235.858 76.2159C235.146 75.5042 234.661 74.5975 234.465 73.6104C234.269 72.6233 234.37 71.6002 234.756 70.6706C235.141 69.741 235.794 68.9466 236.631 68.388C237.468 67.8295 238.452 67.5317 239.459 67.5326C240.806 67.5337 242.098 68.0695 243.051 69.0224C244.004 69.9753 244.54 71.2673 244.541 72.6148Z" fill="#FB5D64"/>
<path d="M264.081 72.6148C264.082 73.6211 263.784 74.6049 263.226 75.4419C262.667 76.279 261.873 76.9316 260.944 77.3173C260.014 77.7029 258.992 77.8043 258.005 77.6085C257.018 77.4127 256.111 76.9286 255.399 76.2174C254.687 75.5062 254.202 74.5999 254.006 73.6131C253.809 72.6262 253.91 71.6033 254.294 70.6736C254.679 69.7439 255.331 68.9492 256.168 68.3901C257.004 67.831 257.988 67.5326 258.994 67.5326C260.343 67.5326 261.636 68.0679 262.589 69.0209C263.543 69.9739 264.08 71.2666 264.081 72.6148Z" fill="#FB5D64"/>
<path d="M283.621 72.6148C283.622 73.6218 283.324 74.6063 282.764 75.4437C282.205 76.2811 281.41 76.9337 280.48 77.3189C279.549 77.704 278.526 77.8044 277.538 77.6072C276.551 77.41 275.644 76.9242 274.933 76.2113C274.222 75.4984 273.738 74.5904 273.544 73.6025C273.349 72.6146 273.452 71.5911 273.839 70.6617C274.227 69.7323 274.881 68.9388 275.72 68.3818C276.559 67.8247 277.544 67.5292 278.551 67.5326C279.9 67.5326 281.193 68.0679 282.147 69.0209C283.1 69.9739 283.637 71.2666 283.638 72.6148" fill="#FB5D64"/>
<path d="M258.754 107.389C256.078 107.389 255.37 112.698 250.605 112.698H222.509V140.94H267.443V107.389H258.754Z" fill="#F4F7FF"/>
<path d="M201.43 107.389C198.753 107.389 198.046 112.698 193.281 112.698H165.185V140.94H210.119V107.389H201.43Z" fill="#F4F7FF"/>
<path d="M135.956 112.698H107.856V140.94H152.794V107.389H144.101C141.429 107.389 140.721 112.698 135.952 112.698" fill="#F4F7FF"/>
<path d="M209.553 165.489L198.736 204.874L234.295 197.982L209.553 165.489Z" stroke="#EAF0FF" stroke-width="3" stroke-linecap="round" stroke-linejoin="round"/>
<path d="M163.598 264.467C171.175 264.467 177.318 258.324 177.318 250.747C177.318 243.17 171.175 237.027 163.598 237.027C156.021 237.027 149.878 243.17 149.878 250.747C149.878 258.324 156.021 264.467 163.598 264.467Z" stroke="#EAF0FF" stroke-width="3" stroke-linecap="round" stroke-linejoin="round"/>
<path d="M181.405 235.826C185.434 235.826 188.7 232.56 188.7 228.531C188.7 224.502 185.434 221.236 181.405 221.236C177.376 221.236 174.11 224.502 174.11 228.531C174.11 232.56 177.376 235.826 181.405 235.826Z" stroke="#EAF0FF" stroke-width="3" stroke-linecap="round" stroke-linejoin="round"/>
<path d="M99.7073 45.9555L140.099 54.5332L88.6936 93.1326L99.7073 45.9555Z" stroke="#B2C3FB" stroke-width="3" stroke-linecap="round" stroke-linejoin="round"/>
<path d="M324 158.632H250.605V267.478H324V158.632Z" fill="#EAF0FF"/>
<path d="M310.186 192.14C310.186 196.667 308.843 201.091 306.329 204.855C303.814 208.618 300.239 211.552 296.057 213.284C291.875 215.016 287.274 215.469 282.834 214.585C278.395 213.702 274.317 211.522 271.117 208.321C267.916 205.12 265.737 201.042 264.855 196.602C263.972 192.163 264.426 187.561 266.159 183.379C267.891 179.198 270.825 175.624 274.589 173.11C278.353 170.596 282.778 169.254 287.305 169.255C293.374 169.256 299.193 171.668 303.484 175.959C307.775 180.251 310.186 186.071 310.186 192.14Z" fill="#CBD7FF"/>
<path d="M315.821 225.473H258.788V238.009H315.821V225.473Z" fill="#B2C3FB"/>
<path d="M315.821 246.891H258.788V259.428H315.821V246.891Z" fill="#B2C3FB"/>
<path d="M16.504 238.798C16.3925 241.264 14.5741 258.913 12.3525 265.578C19.7936 264.596 60.3444 256.571 72.5419 249.52C71.5726 242.924 20.0681 238.112 16.504 238.798Z" fill="#3C3744"/>
<path d="M40.6759 106.793C40.6759 108.973 40.0294 111.104 38.8183 112.916C37.6071 114.729 35.8857 116.142 33.8716 116.976C31.8576 117.81 29.6413 118.028 27.5032 117.603C25.3651 117.178 23.4011 116.128 21.8596 114.586C20.3181 113.045 19.2684 111.081 18.8431 108.943C18.4178 106.805 18.6361 104.589 19.4703 102.574C20.3046 100.56 21.7173 98.839 23.5299 97.6278C25.3425 96.4167 27.4736 95.7702 29.6536 95.7702C31.1012 95.7697 32.5347 96.0544 33.8723 96.6081C35.2098 97.1618 36.4251 97.9737 37.4488 98.9973C38.4724 100.021 39.2843 101.236 39.838 102.574C40.3917 103.911 40.6764 105.345 40.6759 106.793Z" fill="#EECB55"/>
<path d="M75.1366 125.904C75.9215 125.535 77.0623 123.051 77.0623 119.372C77.0623 110.224 70.1144 105.935 59.002 105.935C51.2435 105.935 42.0998 108.834 36.2712 119.719C31.9181 127.808 30.1468 145.666 26.5142 152.091C24.2154 156.153 19.339 164.379 15.5948 172.116C14.1881 174.08 7.11581 189.065 17.9151 193.989C28.7143 198.912 78.8636 196.888 80.1974 194.773C81.5312 192.659 74.0344 177.558 71.5683 174.5C69.1022 171.442 65.5639 167.552 67.5797 152.511C69.5954 137.47 67.7727 128.605 69.5011 127.889C71.2295 127.173 73.3267 127.13 75.1366 125.904Z" fill="#EECB55"/>
<path d="M47.2635 136.428C47.2635 137.354 46.9891 138.258 46.4749 139.028C45.9608 139.797 45.23 140.397 44.375 140.751C43.52 141.105 42.5792 141.198 41.6716 141.018C40.7639 140.837 39.9302 140.391 39.2758 139.737C38.6214 139.083 38.1757 138.249 37.9952 137.341C37.8147 136.434 37.9073 135.493 38.2615 134.638C38.6156 133.783 39.2153 133.052 39.9848 132.538C40.7543 132.024 41.659 131.749 42.5844 131.749C43.825 131.75 45.0145 132.244 45.8918 133.121C46.769 133.998 47.2624 135.188 47.2635 136.428Z" fill="white"/>
<path d="M14.7285 237.027C14.617 239.493 12.7985 257.142 10.5769 263.806" stroke="#1B3C87" stroke-linecap="round" stroke-linejoin="round"/>
<path d="M118.398 164.108C122.022 158.37 120.971 151.752 119.414 153.789C118.895 154.471 112.123 168.191 110.772 169.585C109.722 169.62 108.885 169.757 108.534 170.044C107.161 171.159 107.676 178.973 107.161 179.66C106.647 180.346 87.0681 210.402 86.206 211.346C86.1203 211.689 83.6328 200.1 82.8736 198.05C80.9179 199.628 76.0501 202.42 74.5833 202.897C74.7506 204.222 75.574 220.605 74.5833 225.928C75.4154 227.574 80.4419 232.567 82.5777 232.567C86.6907 232.567 91.0653 230.984 92.2147 230.191C97.0139 226.897 115.533 184.365 116.888 183.481C119.595 181.705 124.102 175.581 124.733 171.704C124.733 169.988 126.139 168.869 118.385 164.096" fill="white"/>
<path d="M63.7283 169.976C75.8099 166.03 86.8022 193.461 85.9444 195.674C85.0867 197.887 72.8892 204.501 70.2302 204.149C67.5711 203.797 59.0363 171.498 63.7283 169.967" fill="#6C63FF"/>
<path d="M61.9656 168.204C74.0472 164.258 85.0395 191.694 84.1817 193.903C83.324 196.112 71.1265 202.729 68.4675 202.386C65.8084 202.043 57.2479 169.735 61.9656 168.204Z" stroke="#1B3C87" stroke-linecap="round" stroke-linejoin="round"/>
<path d="M49.1849 163.118C83.3797 163.92 74.742 240.291 73.1723 243.019C71.0579 246.69 27.2819 250.022 16.8429 239.78C14.4283 237.413 16.7228 162.359 49.1849 163.118Z" fill="#6C63FF"/>
<path d="M43.4507 161.647C44.7583 161.414 46.086 161.315 47.4136 161.351C57.9212 161.595 64.3845 168.976 68.253 179.166" stroke="#1B3C87" stroke-linecap="round" stroke-linejoin="round"/>
<path d="M73.2881 206.799C74.2145 224.113 72.1001 240.029 71.401 241.247C69.2866 244.918 25.5106 248.251 15.0716 238.009C12.8757 235.865 14.5741 173.531 39.3506 162.882" stroke="#1B3C87" stroke-linecap="round" stroke-linejoin="round"/>
<path d="M72.2588 117.455C72.3274 121.7 42.7302 125.719 42.5672 131.749C42.4043 137.779 42.3056 141.262 42.3056 141.262C43.365 146.884 41.0704 166.763 40.4228 168.839C42.9061 171.151 55.3608 170.983 56.7204 169.585C56.5445 168.187 56.5703 158.666 56.9262 157.577C57.4494 157.647 57.9766 157.683 58.5045 157.684C68.03 157.684 75.7542 146.443 75.7542 132.573C75.7542 125.325 75.6341 123.407 72.2674 117.442" fill="white"/>
<path d="M31.5364 165.438C44.776 169.551 36.8502 201.623 34.3198 202.888C31.7894 204.153 6.99142 197.068 6.48534 194.285C5.97926 191.501 14.6684 160.193 31.5364 165.438Z" fill="#6C63FF"/>
<path d="M37.2105 180.196C37.1033 189.944 33.9724 200.405 32.5485 201.117C30.0181 202.382 5.22013 195.297 4.71405 192.513C4.56394 191.694 5.20727 188.417 6.62258 184.326" stroke="#1B3C87" stroke-linecap="round" stroke-linejoin="round"/>
<path d="M13.5962 170.645C17.6535 165.266 23.0659 161.582 29.7651 163.667C30.3074 163.833 30.8307 164.056 31.3262 164.331" stroke="#1B3C87" stroke-linecap="round" stroke-linejoin="round"/>
<path d="M93.8487 195.494C99.2912 187.208 105.124 178.283 105.403 177.91C105.917 177.224 105.403 169.409 106.775 168.294C108.148 167.179 116.897 168.294 116.897 169.289C116.897 170.284 113.324 173.578 112.449 173.823" stroke="#1B3C87" stroke-linecap="round" stroke-linejoin="round"/>
<path d="M81.2095 196.571C81.9687 198.625 84.3618 209.943 84.4476 209.6C84.6663 209.356 86.1031 207.224 88.1317 204.17" stroke="#1B3C87" stroke-linecap="round" stroke-linejoin="round"/>
<path d="M116.627 162.337C120.251 156.599 119.2 149.981 117.643 152.018C117.124 152.7 110.352 166.42 109.001 167.814" stroke="#1B3C87" stroke-linecap="round" stroke-linejoin="round"/>
<path d="M117.836 163.834C117.351 164.752 115.13 168.453 115.13 168.453" stroke="#1B3C87" stroke-linecap="round" stroke-linejoin="round"/>
<path d="M120.212 165.296C119.269 167.43 118.161 169.486 116.897 171.447" stroke="#1B3C87" stroke-linecap="round" stroke-linejoin="round"/>
<path d="M122.344 166.892C121.24 169.286 119.973 171.602 118.552 173.823" stroke="#1B3C87" stroke-linecap="round" stroke-linejoin="round"/>
<path d="M116.601 180.509C116.149 180.957 115.656 181.364 115.13 181.723C113.775 182.61 95.2555 225.138 90.4563 228.436C89.3069 229.226 84.9323 230.808 80.8193 230.808C78.6749 230.808 74.1158 226.519 73.2881 224.885" stroke="#1B3C87" stroke-linecap="round" stroke-linejoin="round"/>
<path d="M122.974 169.945C122.713 171.562 121.773 173.57 120.577 175.491" stroke="#1B3C87" stroke-linecap="round" stroke-linejoin="round"/>
<path d="M70.1144 146.7C66.9492 152.331 62.1414 155.925 56.7547 155.925C53.3236 155.925 50.1113 154.459 47.4179 151.932" stroke="#1B3C87" stroke-linecap="round" stroke-linejoin="round"/>
<path d="M70.4961 115.683C72.8408 120.378 74.0331 125.563 73.9743 130.81C73.9819 133.457 73.6942 136.097 73.1166 138.68" stroke="#1B3C87" stroke-linecap="round" stroke-linejoin="round"/>
<path d="M43.4507 138.491C42.7828 138.951 42.0065 139.23 41.1984 139.299C40.3903 139.367 39.5781 139.225 38.8419 138.885C38.1056 138.544 37.4707 138.018 36.9995 137.358C36.5284 136.698 36.2373 135.926 36.1549 135.119C36.0725 134.312 36.2017 133.498 36.5297 132.756C36.8577 132.014 37.3732 131.371 38.0255 130.889C38.6777 130.407 39.4443 130.103 40.2497 130.007C41.0551 129.911 41.8716 130.027 42.6187 130.342" stroke="#1B3C87" stroke-linecap="round" stroke-linejoin="round"/>
<path d="M57.7068 129.382C57.7068 130.372 57.2779 131.179 56.7289 131.179C56.18 131.179 55.7554 130.372 55.7554 129.382C55.7554 128.391 56.1842 127.58 56.7289 127.58C57.2736 127.58 57.7068 128.387 57.7068 129.382Z" fill="#1B3C87"/>
<path d="M66.6147 137.784C66.7785 138.106 66.9801 138.409 67.2151 138.684" stroke="#1B3C87" stroke-linecap="round" stroke-linejoin="round"/>
<path d="M65.6583 132.251C65.5662 133.568 65.6864 134.892 66.0142 136.171" stroke="#1B3C87" stroke-linecap="round" stroke-linejoin="round"/>
<path d="M52.2214 141.335C52.4101 142.596 53.7997 144.234 55.7511 144.864" stroke="#1B3C87" stroke-linecap="round" stroke-linejoin="round"/>
<path d="M54.9491 167.814C54.7732 166.416 54.799 156.895 55.1549 155.805" stroke="#1B3C87" stroke-linecap="round" stroke-linejoin="round"/>
<path d="M39.8524 158.632C39.4235 162.856 38.9089 166.27 38.6601 167.068C39.6466 167.985 42.1984 168.509 45.0076 168.723" stroke="#1B3C87" stroke-linecap="round" stroke-linejoin="round"/>
<path d="M40.5429 139.495C40.9718 141.678 40.8603 146.01 40.5429 150.616" stroke="#1B3C87" stroke-linecap="round" stroke-linejoin="round"/>
<path d="M19.725 112.432C18.4813 111.065 17.6018 109.406 17.1674 107.609C16.733 105.812 16.7577 103.935 17.2391 102.15C17.7205 100.366 18.6433 98.7308 19.9224 97.3962C21.2014 96.0617 22.7957 95.0703 24.5585 94.5136" stroke="#1B3C87" stroke-linecap="round" stroke-linejoin="round"/>
<path d="M38.0383 100.737C38.8343 102.62 39.0913 104.688 38.7804 106.708C38.4695 108.729 37.6031 110.624 36.2779 112.181C34.9526 113.738 33.2207 114.896 31.2754 115.526C29.3302 116.156 27.2482 116.232 25.2618 115.748" stroke="#1B3C87" stroke-linecap="round" stroke-linejoin="round"/>
<path d="M66.3359 105.424C71.9972 107.311 75.291 111.313 75.291 117.6C75.291 121.28 74.1502 123.763 73.361 124.132" stroke="#1B3C87" stroke-linecap="round" stroke-linejoin="round"/>
<path d="M27.8823 141.009C29.8209 133.19 31.575 123.36 34.4914 117.926C39.9596 107.723 48.3357 104.541 55.7554 104.202" stroke="#1B3C87" stroke-linecap="round" stroke-linejoin="round"/>
<path d="M13.8235 170.344C16.3968 165.022 19.5105 159.464 21.9723 155.196" stroke="#1B3C87" stroke-linecap="round" stroke-linejoin="round"/>
<path d="M65.5296 164.331C65.714 166.026 65.9928 167.445 66.3874 168.217" stroke="#1B3C87" stroke-linecap="round" stroke-linejoin="round"/>
<path d="M65.624 152.336C65.3109 153.421 65.1565 156.916 65.268 160.411" stroke="#1B3C87" stroke-linecap="round" stroke-linejoin="round"/>
<path d="M71.6498 112.887C71.6498 121.778 40.8045 122.58 40.8045 129.978" stroke="#1B3C87" stroke-linecap="round" stroke-linejoin="round"/>
<path d="M87.1367 242.911C90.1089 243.409 91.803 238.515 93.6128 238.777C94.9338 238.966 101.251 239.776 101.53 240.214C101.809 240.651 100.775 245.206 100.775 245.206" fill="#EAF0FF"/>
<path d="M55.8334 237.635L51.1386 265.541L96.0801 273.102L100.775 245.196L55.8334 237.635Z" fill="#EAF0FF"/>
<path d="M96.422 258.797L94.3119 271.338L68.253 266.954" stroke="#1B3C87" stroke-linecap="round" stroke-linejoin="round"/>
<path d="M99.0082 243.435L98.1247 248.68" stroke="#1B3C87" stroke-linecap="round" stroke-linejoin="round"/>
<path d="M53.4651 264.467L49.3693 263.764L54.087 235.856L92.3562 242.289" stroke="#1B3C87" stroke-linecap="round" stroke-linejoin="round"/>
<path d="M85.3654 241.14C88.3376 241.637 90.036 236.744 91.8416 237.006C93.1625 237.194 99.48 238.005 99.7587 238.442C100.038 238.88 99.0039 243.435 99.0039 243.435" stroke="#1B3C87" stroke-linecap="round" stroke-linejoin="round"/>
<path d="M87.3659 246.07L85.3615 257.984L91.8916 259.083L93.8961 247.169L87.3659 246.07Z" fill="#FB5D64"/>
<path d="M57.9384 243.435L83.5984 247.749" stroke="#1B3C87" stroke-linecap="round" stroke-linejoin="round"/>
<path d="M78.8078 252.548L82.6249 253.192" stroke="#1B3C87" stroke-linecap="round" stroke-linejoin="round"/>
<path d="M56.9691 248.877L71.7098 251.356" stroke="#1B3C87" stroke-linecap="round" stroke-linejoin="round"/>
<path d="M85.8029 244.64C85.1338 239.493 83.5856 234.029 72.6448 234.501C71.1651 233.313 42.43 225.164 25.1031 220.669C27.1189 216.505 29.4692 203.814 29.5893 202.656C28.3026 202.416 9.31598 196.575 9.31598 196.575C9.31598 196.575 1.37736 229.77 3.10147 232.545C13.7249 239.313 53.5767 244.189 71.5683 242.924C72.8292 243.915 72.6576 244.537 74.4461 244.79C76.2345 245.043 85.8029 244.64 85.8029 244.64Z" fill="white"/>
<path d="M51.518 226.601C61.7597 229.534 70.0929 232.095 70.8692 232.73C81.8186 232.258 83.3626 237.7 84.0316 242.868" stroke="#1B3C87" stroke-linecap="round" stroke-linejoin="round"/>
<path d="M27.818 200.902C27.6936 202.043 25.3433 214.734 23.3318 218.915C29.3619 220.472 36.7773 222.475 43.9439 224.491" stroke="#1B3C87" stroke-linecap="round" stroke-linejoin="round"/>
<path d="M74.5576 238.031C75.054 239.793 75.2355 241.63 75.0937 243.456" stroke="#1B3C87" stroke-linecap="round" stroke-linejoin="round"/>
<path d="M77.86 238.031C78.3606 239.793 78.5422 241.63 78.3961 243.456" stroke="#1B3C87" stroke-linecap="round" stroke-linejoin="round"/>
<path d="M80.5233 238.031C81.0203 239.793 81.2003 241.63 81.0552 243.456" stroke="#1B3C87" stroke-linecap="round" stroke-linejoin="round"/>
<path d="M1.77193 222.299C1.02138 226.923 0.704009 230.379 1.34304 230.774C16.1952 240.209 61.0821 241.685 69.8099 241.153" stroke="#1B3C87" stroke-linecap="round" stroke-linejoin="round"/>
<path d="M7.54467 194.821C7.3817 195.395 5.85059 201.829 4.3109 209.107" stroke="#1B3C87" stroke-linecap="round" stroke-linejoin="round"/>
</svg>
