<svg width="94" height="88" viewBox="0 0 94 88" fill="none" xmlns="http://www.w3.org/2000/svg">
<g clip-path="url(#clip0)">
<path d="M43.1624 48.4166C43.1456 48.4166 43.135 48.4161 43.1313 48.4159L41.1214 48.4161V48.1149H43.1386C43.1853 48.1166 44.1382 48.144 45.0161 47.0613C46.3244 45.4477 47.3988 41.4532 45.0874 31.5868C41.9795 18.3201 44.5716 6.59962 45.8304 2.17634C45.8924 1.95751 45.9035 1.72701 45.8628 1.50306C45.8221 1.27912 45.7307 1.06786 45.5958 0.885988C45.461 0.704112 45.2864 0.556598 45.0858 0.455105C44.8852 0.353612 44.6641 0.30092 44.44 0.30119H14.4235C14.1953 0.301501 13.9704 0.356495 13.767 0.461707C13.5636 0.56692 13.3875 0.719388 13.253 0.906733C12.7198 1.65221 11.988 3.08433 11.5301 5.67385L11.2385 5.62061C11.7063 2.97484 12.4618 1.50058 13.0133 0.729667C13.1754 0.503924 13.3875 0.320204 13.6326 0.193424C13.8776 0.0666435 14.1486 0.000375103 14.4235 8.1954e-07H44.44C44.7101 -0.000263254 44.9765 0.0632936 45.2182 0.18565C45.4599 0.308006 45.6702 0.48581 45.8327 0.705013C45.9952 0.924216 46.1052 1.17881 46.1543 1.44869C46.2033 1.71857 46.1898 1.99633 46.1151 2.26003C44.8628 6.66036 42.2841 18.32 45.3758 31.5171C47.7196 41.5222 46.5928 45.6033 45.2349 47.2651C44.3392 48.3611 43.3523 48.4166 43.1624 48.4166Z" fill="#E6E6E6"/>
<path d="M37.754 53.9133C37.7372 53.9133 37.7266 53.9128 37.723 53.9126L35.7131 53.9128V53.6116H37.7302C37.7772 53.6131 38.7298 53.6407 39.6077 52.558C40.916 50.9444 41.9905 46.9499 39.6791 37.0835C36.5711 23.8168 39.1633 12.0963 40.422 7.67305C40.484 7.45421 40.4951 7.22371 40.4544 6.99977C40.4137 6.77582 40.3223 6.56457 40.1875 6.38269C40.0526 6.20082 39.878 6.0533 39.6774 5.95181C39.4768 5.85032 39.2557 5.79762 39.0317 5.79789H9.01516C8.78695 5.79821 8.56203 5.8532 8.35865 5.95841C8.15528 6.06362 7.97917 6.21609 7.84463 6.40344C7.31141 7.14891 6.57965 8.58104 6.12176 11.1706L5.83008 11.1173C6.29792 8.47154 7.05348 6.99729 7.60493 6.22637C7.767 6.00063 7.97916 5.81691 8.22418 5.69013C8.46921 5.56335 8.74021 5.49708 9.01516 5.4967H39.0317C39.3017 5.49644 39.5681 5.56 39.8098 5.68235C40.0515 5.80471 40.2619 5.98251 40.4243 6.20172C40.5868 6.42092 40.6969 6.67552 40.7459 6.94539C40.7949 7.21527 40.7815 7.49303 40.7067 7.75673C39.4545 12.1571 36.8757 23.8167 39.9674 37.0138C42.3113 47.0189 41.1845 51.1 39.8265 52.7618C38.9308 53.8578 37.9439 53.9133 37.754 53.9133Z" fill="#CCCCCC"/>
<path d="M32.3456 59.41C32.3288 59.41 32.3183 59.4095 32.3146 59.4093L2.76072 59.4095C2.47618 59.4099 2.1959 59.3394 1.9444 59.2041C1.6929 59.0689 1.47784 58.873 1.31805 58.6337C1.15827 58.3945 1.05862 58.119 1.02782 57.8315C0.997029 57.5441 1.03603 57.2533 1.14142 56.9847C2.21373 54.2618 3.65754 47.7293 1.27944 34.5702C-1.52867 19.0318 0.98534 13.4162 2.19655 11.7231C2.35862 11.4973 2.57078 11.3136 2.81581 11.1868C3.06085 11.06 3.33185 10.9938 3.60681 10.9934H33.6233C33.8933 10.9931 34.1597 11.0567 34.4014 11.1791C34.6431 11.3014 34.8535 11.4792 35.016 11.6984C35.1784 11.9176 35.2885 12.1722 35.3375 12.4421C35.3865 12.712 35.3731 12.9897 35.2983 13.2534C34.0461 17.6538 31.4673 29.3134 34.559 42.5105C36.9029 52.5156 35.7761 56.5967 34.4181 58.2585C33.5224 59.3545 32.5355 59.41 32.3456 59.41ZM3.60681 11.2946C3.37859 11.2949 3.15367 11.3499 2.95028 11.4551C2.7469 11.5603 2.57079 11.7128 2.43624 11.9001C1.2475 13.5619 -1.21648 19.0921 1.57091 34.5158C3.8427 47.0865 2.74089 53.7338 1.41653 57.0966C1.32727 57.3184 1.29377 57.5594 1.31904 57.7977C1.34432 58.036 1.42757 58.2642 1.5613 58.4616C1.6939 58.6609 1.8726 58.8241 2.08172 58.9369C2.29084 59.0497 2.52399 59.1085 2.76071 59.1084H32.3218C32.3685 59.1106 33.3214 59.1375 34.1993 58.0547C35.5077 56.4411 36.5821 52.4466 34.2707 42.5802C31.1627 29.3135 33.7549 17.593 35.0136 13.1698C35.0756 12.9509 35.0867 12.7204 35.046 12.4965C35.0053 12.2725 34.9139 12.0613 34.7791 11.8794C34.6442 11.6975 34.4696 11.55 34.269 11.4485C34.0684 11.347 33.8474 11.2943 33.6233 11.2946H3.60681Z" fill="#3F3D56"/>
<path d="M28.5178 24.5469H4.9581C4.64371 24.5469 4.3422 24.42 4.1199 24.1941C3.89759 23.9681 3.77271 23.6617 3.77271 23.3422C3.77271 23.0227 3.89759 22.7162 4.1199 22.4903C4.3422 22.2643 4.64371 22.1374 4.9581 22.1374H28.5178C28.8322 22.1374 29.1337 22.2643 29.3561 22.4903C29.5784 22.7162 29.7032 23.0227 29.7032 23.3422C29.7032 23.6617 29.5784 23.9681 29.3561 24.1941C29.1337 24.42 28.8322 24.5469 28.5178 24.5469Z" fill="#F2C94C"/>
<path d="M28.5178 29.6672H4.9581C4.64371 29.6672 4.3422 29.5403 4.1199 29.3143C3.89759 29.0884 3.77271 28.7819 3.77271 28.4624C3.77271 28.1429 3.89759 27.8365 4.1199 27.6105C4.3422 27.3846 4.64371 27.2577 4.9581 27.2577H28.5178C28.8322 27.2577 29.1337 27.3846 29.3561 27.6105C29.5784 27.8365 29.7032 28.1429 29.7032 28.4624C29.7032 28.7819 29.5784 29.0884 29.3561 29.3143C29.1337 29.5403 28.8322 29.6672 28.5178 29.6672Z" fill="#CCCCCC"/>
<path d="M28.5178 34.7874H4.9581C4.64371 34.7874 4.3422 34.6605 4.1199 34.4345C3.89759 34.2086 3.77271 33.9021 3.77271 33.5826C3.77271 33.2631 3.89759 32.9567 4.1199 32.7307C4.3422 32.5048 4.64371 32.3779 4.9581 32.3779H28.5178C28.8322 32.3779 29.1337 32.5048 29.3561 32.7307C29.5784 32.9567 29.7032 33.2631 29.7032 33.5826C29.7032 33.9021 29.5784 34.2086 29.3561 34.4345C29.1337 34.6605 28.8322 34.7874 28.5178 34.7874Z" fill="#CCCCCC"/>
<path d="M30.2959 39.9076H6.73618C6.42179 39.9076 6.12028 39.7807 5.89797 39.5547C5.67567 39.3288 5.55078 39.0224 5.55078 38.7028C5.55078 38.3833 5.67567 38.0769 5.89797 37.851C6.12028 37.625 6.42179 37.4981 6.73618 37.4981H30.2959C30.6103 37.4981 30.9118 37.625 31.1341 37.851C31.3564 38.0769 31.4813 38.3833 31.4813 38.7028C31.4813 39.0224 31.3564 39.3288 31.1341 39.5547C30.9118 39.7807 30.6103 39.9076 30.2959 39.9076Z" fill="#CCCCCC"/>
<path d="M30.2959 45.0278H6.73618C6.42179 45.0278 6.12028 44.9009 5.89797 44.675C5.67567 44.449 5.55078 44.1426 5.55078 43.8231C5.55078 43.5036 5.67567 43.1971 5.89797 42.9712C6.12028 42.7452 6.42179 42.6183 6.73618 42.6183H30.2959C30.6103 42.6183 30.9118 42.7452 31.1341 42.9712C31.3564 43.1971 31.4813 43.5036 31.4813 43.8231C31.4813 44.1426 31.3564 44.449 31.1341 44.675C30.9118 44.9009 30.6103 45.0278 30.2959 45.0278Z" fill="#CCCCCC"/>
<path d="M16.0712 19.4267H4.9581C4.64371 19.4267 4.3422 19.2998 4.1199 19.0739C3.89759 18.8479 3.77271 18.5415 3.77271 18.222C3.77271 17.9024 3.89759 17.596 4.1199 17.3701C4.3422 17.1441 4.64371 17.0172 4.9581 17.0172H16.0712C16.3856 17.0172 16.6871 17.1441 16.9094 17.3701C17.1317 17.596 17.2566 17.9024 17.2566 18.222C17.2566 18.5415 17.1317 18.8479 16.9094 19.0739C16.6871 19.2998 16.3856 19.4267 16.0712 19.4267Z" fill="#F2C94C"/>
<path d="M14.6361 53.2837C14.8753 52.2544 15.999 51.917 16.9177 51.9547C17.4982 51.9945 18.074 52.0871 18.6382 52.2314C19.2285 52.3656 19.8131 52.5246 20.3948 52.6931C21.4614 53.0023 22.517 53.3762 23.6012 53.6179C24.5038 53.8191 25.4847 53.9371 26.3848 53.6593C27.2501 53.3923 27.9841 52.7368 28.2195 51.8304C28.4414 50.9763 28.1368 50.0424 27.3225 49.6521C26.5799 49.2962 25.6418 49.4772 25.2737 50.2821C24.8587 51.1897 25.2734 52.1795 25.9305 52.8363C26.304 53.1927 26.7131 53.5085 27.1511 53.7786C27.5957 54.0865 28.0906 54.3118 28.6127 54.4439C29.4699 54.63 30.491 54.3558 30.933 53.5234C31.0313 53.335 31.0904 53.1281 31.1067 52.9155C31.1328 52.6261 30.6882 52.6279 30.6622 52.9155C30.5872 53.7443 29.6322 54.1324 28.9181 54.0415C28.436 53.9603 27.9757 53.7788 27.5659 53.5082C27.1705 53.2738 26.7958 53.0051 26.446 52.705C25.8403 52.1723 25.2725 51.2956 25.6793 50.4643C26.0106 49.7874 26.8741 49.7941 27.3993 50.2307C28.0353 50.7594 27.9219 51.719 27.5024 52.3468C27.0379 53.042 26.196 53.3334 25.4022 53.3648C24.5397 53.399 23.6843 53.1978 22.86 52.9599C21.8357 52.6643 20.8217 52.3335 19.7925 52.0552C19.2082 51.8972 18.6194 51.7546 18.0246 51.6436C17.4621 51.5176 16.8844 51.477 16.3103 51.523C15.3827 51.6319 14.4358 52.1806 14.2074 53.1636C14.1418 53.4463 14.5703 53.567 14.6361 53.2837L14.6361 53.2837Z" fill="#3F3D56"/>
<path d="M60.0516 78.8273C60.0772 81.7927 60.2909 84.7532 60.6914 87.6906C60.7054 87.7937 60.7207 87.8969 60.7347 88L88.0585 87.8448C88.1387 87.7424 88.2177 87.6387 88.2942 87.5338C88.5493 87.1866 88.7884 86.8295 89.0078 86.4601C90.0628 84.6805 90.5457 82.5969 90.0618 81.1594L90.0531 81.1371C89.9486 80.8223 89.784 80.5316 89.5687 80.2816C88.4652 79.0192 86.2342 79.2296 84.2095 80.2486C86.0255 78.2284 87.4715 75.6791 87.5814 73.4036C87.6891 71.1841 86.5472 69.5986 85.3086 68.2512C85.268 68.2066 85.2274 68.1633 85.1867 68.12C85.167 68.0977 85.1461 68.0767 85.1264 68.0544C84.1601 67.0276 83.0335 66.0153 81.4029 66.1378C79.6145 66.2723 77.6317 67.7947 76.2415 69.5688C74.8512 71.3416 73.9274 73.3555 72.9909 75.321C72.0533 77.2853 71.0389 79.2998 69.5343 80.9787C71.5722 78.3589 73.2152 75.3782 73.8222 72.4793C74.4291 69.5803 73.895 66.7961 72.0787 65.4308C71.5273 65.0291 70.8893 64.7674 70.218 64.6677C70.1397 64.6545 70.0601 64.6437 69.9792 64.6342C68.2979 64.4398 66.2905 65.0308 64.5825 66.4435C62.7015 67.9989 61.3974 70.3048 60.7486 72.4938C60.0998 74.6828 60.0306 76.7902 60.0516 78.8273Z" fill="#F2F2F2"/>
<path d="M77.9283 87.9024L78.4508 87.8994C78.6167 87.794 78.7834 87.6898 78.9509 87.5869C79.0545 87.5204 79.1594 87.4563 79.2643 87.3911C80.9974 86.3153 82.7413 85.2834 84.4961 84.2954C86.2492 83.3066 88.0112 82.3634 89.782 81.4657C89.8289 81.4449 89.8672 81.4081 89.8902 81.3616C89.9132 81.3151 89.9195 81.2619 89.9079 81.2113C89.906 81.2046 89.903 81.1983 89.8992 81.1927C89.8745 81.1455 89.8193 81.1259 89.7387 81.1662C89.5215 81.2769 89.303 81.3876 89.0859 81.5008C87.3102 82.4138 85.5422 83.3724 83.7819 84.3766C82.0227 85.3804 80.2736 86.4285 78.5344 87.5208C78.4979 87.5434 78.4613 87.5673 78.4247 87.5899C78.2588 87.694 78.0942 87.7982 77.9283 87.9024Z" fill="white"/>
<path d="M71.1917 87.9406L71.5147 87.9388C71.5876 87.8351 71.6592 87.7315 71.7321 87.6279C73.4442 85.1878 75.1559 82.7478 76.8672 80.3077C79.6698 76.313 82.4714 72.3182 85.2723 68.3235C85.2889 68.302 85.3013 68.2774 85.3087 68.2512C85.3326 68.1627 85.2687 68.1108 85.1868 68.12C85.1522 68.125 85.1191 68.1375 85.0897 68.1565C85.0602 68.1756 85.0351 68.2008 85.016 68.2304C83.4448 70.4707 81.8739 72.7101 80.3035 74.9487C77.5155 78.9234 74.728 82.8978 71.9408 86.8717C71.7636 87.124 71.5863 87.3774 71.409 87.6297C71.3361 87.7333 71.2633 87.837 71.1917 87.9406Z" fill="white"/>
<path d="M63.9938 86.0338C64.0103 86.5871 64.0463 87.1317 64.0934 87.6712C64.1025 87.7744 64.1116 87.8776 64.1208 87.9808L64.4598 87.9788C64.4494 87.8757 64.439 87.7725 64.4299 87.6693C64.3583 86.8899 64.3075 86.1016 64.3006 85.292C64.2916 83.0472 64.5068 80.8073 64.943 78.6068C65.4066 76.2374 66.0724 73.9135 66.9327 71.6615C67.8356 69.2863 68.9242 66.9884 70.188 64.7898C70.2118 64.754 70.2224 64.7107 70.218 64.6677C70.204 64.5695 70.0753 64.5404 69.9792 64.6343C69.9602 64.6527 69.9438 64.6737 69.9306 64.6967C69.7742 64.97 69.6207 65.2441 69.47 65.519C68.2528 67.7298 67.2109 70.0356 66.3542 72.4147C65.5383 74.6742 64.9176 77.0015 64.4993 79.3705C64.1075 81.5682 63.9381 83.8009 63.9938 86.0338Z" fill="white"/>
<path d="M30.9691 53.3907C30.9129 53.3432 30.8719 53.2798 30.8511 53.2085C30.8303 53.1373 30.8307 53.0613 30.8523 52.9903C30.8738 52.9193 30.9156 52.8564 30.9723 52.8095C31.0291 52.7625 31.0982 52.7337 31.171 52.7267C31.9791 52.6473 32.7948 52.7323 33.5703 52.9766L41.4703 55.4563C41.5726 55.4883 41.6676 55.5406 41.75 55.61C41.8324 55.6795 41.9005 55.7647 41.9505 55.8609C42.0004 55.957 42.0313 56.0623 42.0412 56.1706C42.0512 56.2789 42.0401 56.3881 42.0085 56.4921C41.9769 56.596 41.9255 56.6926 41.8572 56.7763C41.7889 56.86 41.705 56.9293 41.6104 56.9801C41.5157 57.0309 41.4122 57.0622 41.3056 57.0723C41.1991 57.0824 41.0916 57.0711 40.9893 57.039L33.0894 54.5594C32.3133 54.3167 31.5926 53.9194 30.9691 53.3907Z" fill="#3F3D56"/>
<path d="M63.3522 63.6913C63.1376 63.5999 62.9453 63.4617 62.789 63.2865C62.6326 63.1114 62.5159 62.9035 62.4472 62.6775C62.3784 62.4516 62.3592 62.2131 62.3909 61.9788C62.4227 61.7445 62.5046 61.5201 62.6309 61.3214L61.2768 54.1243L64.728 53.8508L64.9363 60.8907C65.2506 61.1284 65.4682 61.4751 65.5478 61.865C65.6274 62.2549 65.5635 62.6609 65.3682 63.0061C65.173 63.3513 64.8599 63.6118 64.4883 63.738C64.1168 63.8643 63.7125 63.8477 63.3522 63.6913Z" fill="#FFB8B8"/>
<path d="M61.0639 59.9769L57.5487 43.3388C57.4044 42.6554 57.5331 41.9418 57.9064 41.3548C58.2798 40.7679 58.8673 40.3557 59.5397 40.209C60.2121 40.0622 60.9143 40.193 61.4918 40.5725C62.0693 40.952 62.4749 41.5491 62.6192 42.2324L66.1344 58.8704C66.1713 59.0461 66.1382 59.2295 66.0422 59.3804C65.9462 59.5313 65.7953 59.6373 65.6225 59.6753L61.8558 60.4972C61.7702 60.5159 61.6818 60.5173 61.5956 60.5013C61.5095 60.4853 61.4273 60.4521 61.3537 60.4038C61.2802 60.3555 61.2167 60.2929 61.167 60.2197C61.1173 60.1464 61.0822 60.0639 61.0639 59.9769Z" fill="#6C63FF"/>
<path d="M55.2944 86.1498H53.4779L52.6136 79.0285L55.2948 79.0287L55.2944 86.1498Z" fill="#FFB8B8"/>
<path d="M52.18 85.6223H55.6834V87.8641H49.9742C49.9742 87.5697 50.0312 87.2782 50.1421 87.0062C50.2529 86.7342 50.4154 86.4871 50.6203 86.2789C50.8251 86.0707 51.0683 85.9056 51.3359 85.7929C51.6035 85.6802 51.8904 85.6223 52.18 85.6223Z" fill="#2F2E41"/>
<path d="M61.3693 85.9992H59.5529L58.6885 78.8779L61.3698 78.8781L61.3693 85.9992Z" fill="#FFB8B8"/>
<path d="M58.2552 85.4717H61.7586V87.7135H56.0494C56.0494 87.4191 56.1064 87.1276 56.2173 86.8556C56.3281 86.5836 56.4906 86.3365 56.6955 86.1283C56.9003 85.9201 57.1435 85.755 57.4111 85.6423C57.6787 85.5296 57.9656 85.4717 58.2552 85.4717Z" fill="#2F2E41"/>
<path d="M53.1178 84.8215C53.0497 84.7647 52.9934 84.6946 52.9523 84.6154C52.9112 84.5362 52.886 84.4495 52.8783 84.3603L50.7664 60.7501C50.7582 60.6585 50.7685 60.5661 50.7966 60.4786C50.8247 60.3911 50.87 60.3104 50.9298 60.2413C50.9896 60.1722 51.0626 60.1162 51.1444 60.0767C51.2262 60.0372 51.315 60.015 51.4055 60.0116L61.997 59.6079C62.0886 59.6044 62.18 59.6202 62.2654 59.6543C62.3508 59.6883 62.4283 59.7399 62.4932 59.8058C62.5581 59.8717 62.6089 59.9505 62.6425 60.0372C62.676 60.124 62.6916 60.2168 62.6883 60.31L61.8417 83.8294C61.8354 83.994 61.7705 84.1507 61.659 84.2703C61.5476 84.3899 61.3971 84.4642 61.2357 84.4794L59.1001 84.6768C59.0115 84.685 58.9222 84.6751 58.8375 84.6477C58.7528 84.6203 58.6743 84.5759 58.6067 84.5172C58.539 84.4585 58.4837 84.3867 58.4438 84.3059C58.4039 84.2251 58.3803 84.1371 58.3744 84.0469L57.3943 69.1054C57.3936 69.0767 57.3873 69.0484 57.3758 69.0222C57.3642 68.996 57.3476 68.9724 57.327 68.9528C57.3063 68.9331 57.2821 68.9179 57.2556 68.9079C57.2291 68.8979 57.2009 68.8934 57.1727 68.8946H57.1718C57.1434 68.8935 57.1152 68.8981 57.0886 68.9083C57.0621 68.9184 57.0378 68.9338 57.0172 68.9536C56.9966 68.9734 56.9801 68.9972 56.9687 69.0235C56.9572 69.0499 56.9511 69.0783 56.9506 69.1071L56.0736 84.1494C56.0648 84.3105 55.9995 84.463 55.8896 84.5793C55.7796 84.6957 55.6323 84.7681 55.4743 84.7835L53.6087 84.9733C53.521 84.9824 53.4325 84.9737 53.3482 84.9477C53.2639 84.9216 53.1855 84.8787 53.1178 84.8215H53.1178Z" fill="#2F2E41"/>
<path d="M57.1918 36.6733C59.2017 36.6733 60.8311 35.0174 60.8311 32.9746C60.8311 30.9318 59.2017 29.2758 57.1918 29.2758C55.1819 29.2758 53.5525 30.9318 53.5525 32.9746C53.5525 35.0174 55.1819 36.6733 57.1918 36.6733Z" fill="#FFB8B8"/>
<path d="M50.1835 60.91C50.1187 60.8352 50.0711 60.7467 50.0441 60.6509C50.0171 60.555 50.0115 60.4543 50.0275 60.356C50.6994 56.2054 50.3207 50.1044 49.8847 45.7171C49.7709 44.5533 49.9608 43.3796 50.4353 42.3141C50.9098 41.2487 51.6522 40.3291 52.5876 39.6479L54.4882 37.9923C54.6145 37.8835 54.7757 37.8255 54.9412 37.8293L59.663 37.9664C59.8332 37.9711 59.9952 38.0421 60.1154 38.1648L60.845 39.8069L60.8526 39.8125C61.722 40.462 62.4196 41.3204 62.8828 42.3109C63.346 43.3014 63.5605 44.3931 63.5071 45.4885L62.8121 60.0866C62.8032 60.2563 62.7322 60.4166 62.613 60.5358C62.4939 60.6551 62.3351 60.7248 62.168 60.7312L50.7071 61.1405C50.6997 61.1406 50.6923 61.1408 50.6849 61.1408C50.59 61.1409 50.4961 61.1204 50.4096 61.0806C50.3232 61.0408 50.2461 60.9826 50.1835 60.91Z" fill="#6C63FF"/>
<path d="M36.4365 54.8183C36.4308 54.5819 36.4762 54.347 36.5694 54.1303C36.6627 53.9136 36.8015 53.7204 36.9762 53.5641C37.1509 53.4079 37.3572 53.2924 37.5805 53.226C37.8039 53.1595 38.0388 53.1436 38.2688 53.1795L44.1758 48.9781L45.8338 52.0665L39.5991 55.141C39.5143 55.5297 39.2922 55.8734 38.9747 56.1068C38.6573 56.3402 38.2666 56.4471 37.8768 56.4073C37.487 56.3676 37.125 56.1838 36.8596 55.891C36.5941 55.5981 36.4436 55.2164 36.4365 54.8183L36.4365 54.8183Z" fill="#FFB8B8"/>
<path d="M41.4075 55.5486C41.3209 55.5353 41.2377 55.5047 41.1628 55.4586C41.0879 55.4124 41.0227 55.3517 40.9711 55.2798L38.6915 52.1233C38.5871 51.9783 38.5435 51.7972 38.5703 51.6196C38.5971 51.442 38.6921 51.2824 38.8345 51.1759L52.3323 41.1066C52.8868 40.6931 53.5801 40.5203 54.2599 40.6263C54.5965 40.6787 54.9196 40.7981 55.2108 40.9775C55.502 41.1569 55.7556 41.3928 55.9571 41.6718C56.1586 41.9508 56.3041 42.2674 56.3852 42.6036C56.4663 42.9397 56.4814 43.2888 56.4298 43.6309C56.3782 43.9729 56.2607 44.3013 56.0842 44.5973C55.9077 44.8933 55.6756 45.151 55.401 45.3558L41.9031 55.4251C41.7893 55.5104 41.6515 55.5565 41.5101 55.5565C41.4757 55.5565 41.4414 55.5539 41.4075 55.5486Z" fill="#6C63FF"/>
<path d="M57.3781 36.2673C57.8608 35.6659 57.8079 34.7498 57.4206 34.0809C57.0332 33.4121 56.3757 32.9515 55.6991 32.5917C55.0225 32.2319 54.3037 31.949 53.6669 31.5206C53.0302 31.0922 53.058 29.2786 52.8884 28.5219L53.2928 28.6588C53.1374 28.4567 53.0875 27.8596 52.9321 27.6576C53.389 27.7034 53.7404 28.1443 54.1973 28.1902L53.9336 27.4709C55.5005 27.3727 56.4746 28.4793 58.0415 28.3812C58.8178 28.3325 59.6609 28.3017 60.2991 28.7536C60.8537 29.1463 61.1344 29.8259 61.3186 30.4868C61.7141 31.9059 61.7756 33.4955 61.0925 34.7968C60.4094 36.0981 58.8348 36.975 57.4592 36.5051L57.3781 36.2673Z" fill="#2F2E41"/>
<path d="M37.3973 87.9473H93.8518C93.8911 87.9473 93.9288 87.9315 93.9566 87.9032C93.9843 87.875 94 87.8367 94 87.7967C94 87.7568 93.9843 87.7185 93.9566 87.6902C93.9288 87.662 93.8911 87.6461 93.8518 87.6461H37.3973C37.358 87.6461 37.3203 87.662 37.2925 87.6902C37.2648 87.7185 37.2491 87.7568 37.2491 87.7967C37.2491 87.8367 37.2648 87.875 37.2925 87.9032C37.3203 87.9315 37.358 87.9473 37.3973 87.9473Z" fill="#3F3D56"/>
</g>
<defs>
<clipPath id="clip0">
<rect width="94" height="88" fill="white"/>
</clipPath>
</defs>
</svg>
