<svg width="94" height="79" viewBox="0 0 94 79" fill="none" xmlns="http://www.w3.org/2000/svg">
<g clip-path="url(#clip0)">
<path d="M59.269 10.7632C58.381 12.5802 56.7471 13.9329 55.0357 15.034C53.2202 16.1978 51.2685 17.1399 49.2234 17.8395C48.9419 17.9368 48.6576 18.0299 48.3733 18.1175H36.2026C36.1238 18.0286 36.0478 17.9354 35.9746 17.8395C35.2104 16.8413 34.8009 15.5776 34.9543 14.3389C35.1555 12.7151 36.4039 11.222 38.0237 10.8758C39.6436 10.531 41.49 11.4861 41.9812 13.0487C42.2528 10.0361 42.5652 6.89695 44.1865 4.33058C45.6544 2.0075 48.1989 0.344786 50.9544 0.0472766C52.5752 -0.119472 54.2104 0.17628 55.6663 0.899482C55.7999 0.966213 55.9322 1.03572 56.0617 1.10802C56.9354 1.59737 57.7063 2.24714 58.3331 3.02237C60.0515 5.17168 60.4723 8.29553 59.269 10.7632Z" fill="#F2F2F2"/>
<path d="M56.0616 1.10801C56.065 1.1445 56.0588 1.18123 56.0435 1.21462C56.0282 1.24801 56.0044 1.27691 55.9744 1.29848C50.4623 5.73256 46.1027 11.4037 43.259 17.8395C43.2167 17.9312 43.176 18.0244 43.1365 18.1175H42.5764C42.6158 18.0244 42.6552 17.9312 42.6961 17.8395C43.2294 16.6105 43.8191 15.4066 44.4651 14.2276C45.8631 11.6823 47.5081 9.27702 49.3767 7.0457C51.2451 4.81166 53.332 2.76506 55.607 0.935626C55.6251 0.921113 55.645 0.908965 55.6662 0.899481C55.7057 0.88265 55.7486 0.874833 55.7916 0.876609C55.8347 0.878385 55.8767 0.88971 55.9147 0.909742C55.9527 0.929774 55.9856 0.957998 56.0111 0.992321C56.0365 1.02664 56.0538 1.06618 56.0616 1.10801Z" fill="white"/>
<path d="M56.2939 18H2.67396C2.21211 17.9995 1.75809 18.1178 1.35663 18.3434C1.26048 18.3973 1.16788 18.4572 1.07943 18.5227C0.744465 18.768 0.472349 19.0875 0.284897 19.4554C0.0974452 19.8233 -0.000128244 20.2295 1.26502e-07 20.6414V48.1681C0.000630283 48.8684 0.282553 49.5399 0.783881 50.0351C1.28521 50.5304 1.96498 50.8089 2.67396 50.8095H56.2939C57.0029 50.8089 57.6827 50.5304 58.184 50.0351C58.6853 49.5399 58.9673 48.8684 58.9679 48.1681V20.6414C58.9673 19.9411 58.6853 19.2696 58.184 18.7744C57.6827 18.2791 57.0029 18.0006 56.2939 18ZM58.6864 48.1681C58.6855 48.7946 58.4332 49.3952 57.9847 49.8382C57.5362 50.2813 56.9282 50.5306 56.2939 50.5315H2.67396C2.03971 50.5306 1.43169 50.2813 0.983207 49.8382C0.534722 49.3952 0.282367 48.7946 0.28147 48.1681V20.6414C0.283468 20.142 0.444717 19.6558 0.742315 19.252C1.03991 18.8482 1.45873 18.5473 1.9393 18.392C1.95902 18.3865 1.97729 18.3795 1.99702 18.374C2.21685 18.3101 2.44483 18.2778 2.67396 18.278H56.2939C56.9282 18.2789 57.5362 18.5282 57.9847 18.9713C58.4332 19.4143 58.6855 20.0149 58.6864 20.6414V48.1681Z" fill="#3F3D56"/>
<path d="M75.6053 53.7453C75.7905 53.6261 75.947 53.4682 76.0637 53.2828C76.1804 53.0974 76.2546 52.889 76.2809 52.6722C76.3073 52.4554 76.2852 52.2356 76.2162 52.0281C76.1472 51.8207 76.0331 51.6307 75.8818 51.4716L76.7222 41.5716L74.3149 41.8332L73.6554 51.4687C73.4016 51.7375 73.2565 52.089 73.2475 52.4565C73.2385 52.824 73.3663 53.1819 73.6067 53.4626C73.8471 53.7432 74.1833 53.927 74.5516 53.9791C74.92 54.0312 75.2949 53.948 75.6053 53.7453Z" fill="#FFB8B8"/>
<path d="M67.0373 77.3585L65.3119 77.3584L64.4911 70.7843L67.0375 70.7844L67.0373 77.3585Z" fill="#FFB8B8"/>
<path d="M64.0795 76.8714H67.407V78.941H61.9844C61.9844 78.6692 62.0386 78.4001 62.1439 78.149C62.2491 77.8979 62.4035 77.6698 62.598 77.4776C62.7926 77.2854 63.0235 77.133 63.2777 77.029C63.5319 76.9249 63.8043 76.8714 64.0795 76.8714Z" fill="#2F2E41"/>
<path d="M79.2811 77.3585L77.5556 77.3584L76.7349 70.7843L79.2813 70.7844L79.2811 77.3585Z" fill="#FFB8B8"/>
<path d="M76.3234 76.8714H79.6509V78.941H74.2283C74.2283 78.3921 74.449 77.8657 74.8419 77.4776C75.2348 77.0895 75.7677 76.8714 76.3234 76.8714Z" fill="#2F2E41"/>
<path d="M67.0664 73.2868C67.0477 73.2868 67.0289 73.286 67.01 73.2845L64.568 73.0915C64.4712 73.0838 64.3769 73.0564 64.2913 73.011C64.2057 72.9656 64.1305 72.9032 64.0705 72.8277C64.0105 72.7522 63.967 72.6652 63.9427 72.5722C63.9184 72.4793 63.9139 72.3824 63.9294 72.2876L67.6319 49.6658L67.8799 46.475C67.8909 46.3259 67.9505 46.1842 68.0499 46.0714C68.1493 45.9586 68.283 45.8806 68.4311 45.8493L72.1551 45.0446C72.292 45.0144 72.4349 45.0255 72.5653 45.0766C72.6957 45.1277 72.8076 45.2164 72.8863 45.3311L73.7943 46.6422C74.1509 47.1518 74.5384 47.6397 74.9547 48.1031C75.5989 48.828 76.6943 50.4373 76.7926 53.0712C76.819 53.9364 76.91 54.7985 77.0648 55.6506L80.0629 71.605C80.0781 71.6985 80.0737 71.7941 80.0501 71.8859C80.0265 71.9778 79.9842 72.0638 79.9257 72.1389C79.8672 72.214 79.7937 72.2764 79.7099 72.3224C79.6261 72.3684 79.5336 72.397 79.4382 72.4064L77.1233 72.5796C76.9577 72.5958 76.7917 72.5532 76.6549 72.4594C76.5182 72.3657 76.4197 72.227 76.3771 72.0681L72.2709 56.9839C72.2629 56.9543 72.2452 56.9282 72.2206 56.9096C72.196 56.891 72.1658 56.8809 72.1348 56.881C72.1038 56.881 72.0737 56.8912 72.0492 56.9099C72.0246 56.9286 72.007 56.9547 71.999 56.9843L67.7461 72.7705C67.7061 72.9185 67.6179 73.0492 67.495 73.1426C67.3721 73.2359 67.2214 73.2866 67.0664 73.2868Z" fill="#2F2E41"/>
<path d="M73.5602 34.7926C75.4693 34.7926 77.0168 33.2638 77.0168 31.378C77.0168 29.4922 75.4693 27.9634 73.5602 27.9634C71.6512 27.9634 70.1036 29.4922 70.1036 31.378C70.1036 33.2638 71.6512 34.7926 73.5602 34.7926Z" fill="#FFB8B8"/>
<path d="M67.7016 46.9883L67.63 42.1122C67.3668 38.9935 68.7649 37.3561 69.9842 36.5324C70.2987 36.3227 70.6529 36.1783 71.0256 36.1078C71.3982 36.0374 71.7814 36.0424 72.152 36.1225L74.8724 36.7035C75.2511 36.785 75.6093 36.9416 75.9251 37.1637C76.2409 37.3859 76.5078 37.669 76.7096 37.9959C76.9027 38.3044 77.0295 38.6488 77.0821 39.0078C77.1347 39.3667 77.112 39.7325 77.0154 40.0824C76.8263 40.7373 76.4072 41.3042 75.8332 41.6814C73.4958 43.3114 73.3311 46.0494 73.3297 46.0769L73.3268 46.1336L67.7016 46.9883Z" fill="#6C63FF"/>
<path d="M76.2149 43.3625H73.8224C73.6545 43.3623 73.4935 43.2963 73.3748 43.179C73.2561 43.0617 73.1893 42.9027 73.1891 42.7369V38.6357C73.1891 38.1563 73.3818 37.6967 73.7249 37.3577C74.068 37.0188 74.5334 36.8284 75.0186 36.8284C75.5039 36.8284 75.9692 37.0188 76.3123 37.3577C76.6554 37.6967 76.8482 38.1563 76.8482 38.6357V42.7369C76.848 42.9027 76.7812 43.0617 76.6625 43.179C76.5438 43.2963 76.3828 43.3623 76.2149 43.3625Z" fill="#6C63FF"/>
<path d="M60.1516 44.1372C60.0107 44.3034 59.8357 44.4382 59.6382 44.5328C59.4408 44.6273 59.2252 44.6794 59.0059 44.6857C58.7865 44.6919 58.5683 44.6522 58.3656 44.5691C58.1629 44.486 57.9804 44.3614 57.83 44.2036C56.4668 42.7913 58.6952 40.6706 60.0636 42.086C60.1118 42.1348 60.1566 42.1868 60.1976 42.2417L67.0976 42.0722L67.9212 40.5843L70.4523 41.5551C69.9664 42.2995 69.4084 45.2211 68.1375 45.0789C67.9708 45.0833 60.322 44.1492 60.1516 44.1372Z" fill="#FFB8B8"/>
<path d="M69.382 43.0114L67.4531 41.6131C67.3179 41.5148 67.2276 41.3675 67.2022 41.2036C67.1767 41.0396 67.2181 40.8724 67.3173 40.7386L69.7736 37.4322C69.9158 37.2409 70.0947 37.0791 70.3001 36.956C70.5056 36.833 70.7336 36.7511 70.971 36.7151C71.2085 36.6791 71.4509 36.6897 71.6842 36.7462C71.9176 36.8027 72.1373 36.9041 72.331 37.0445C72.5247 37.1849 72.6885 37.3616 72.8131 37.5646C72.9376 37.7675 73.0205 37.9927 73.057 38.2273C73.0934 38.4619 73.0827 38.7013 73.0255 38.9318C72.9683 39.1623 72.8657 39.3795 72.7236 39.5708L70.2672 42.8771C70.1677 43.0108 70.0187 43.0999 69.8527 43.1251C69.6867 43.1502 69.5174 43.1094 69.382 43.0114Z" fill="#6C63FF"/>
<path d="M74.2526 33.1528C74.3642 32.9229 74.4029 32.6651 74.3637 32.4131C74.3245 32.1611 74.2093 31.9267 74.0331 31.7405C73.3828 31.0928 72.3668 31.5248 71.488 31.4614C70.0241 31.3557 69.0272 29.6314 69.4642 28.2472C69.9011 26.8631 71.4545 26.0042 72.9193 26.0952C74.3841 26.1863 75.7104 27.0814 76.5932 28.2397C77.1975 27.2789 78.6822 27.1669 79.6404 27.7862C80.5985 28.4055 81.0943 29.5374 81.2992 30.6502C81.5041 31.7631 81.4706 32.9068 81.6431 34.025C82.0614 36.7355 83.8323 39.2879 86.3948 40.3416C88.9573 41.3952 92.2364 40.7181 93.9128 38.5328C94.2388 41.181 93.6669 43.8612 92.2867 46.1542C90.9065 48.4472 88.7958 50.2235 86.2848 51.2053C84.8962 51.7482 83.3627 52.0365 81.9009 51.7347C79.5408 51.2475 77.705 49.2537 76.905 47.0069C76.105 44.7601 76.2007 42.2947 76.5893 39.9441C76.8286 38.4963 77.0937 36.7816 76.0247 35.7633C75.7246 35.5166 75.3716 35.3407 74.9924 35.2491C74.7913 35.1894 74.6067 35.0852 74.4525 34.9444C74.2984 34.8035 74.1789 34.6298 74.103 34.4364C74.0272 34.243 73.997 34.0351 74.0148 33.8284C74.0326 33.6218 74.098 33.4219 74.2059 33.2439C74.2232 33.2137 74.2388 33.1833 74.2526 33.1528Z" fill="#2F2E41"/>
<path d="M86.6616 79H54.5741C54.5368 79 54.501 78.9853 54.4746 78.9593C54.4482 78.9332 54.4333 78.8978 54.4333 78.861C54.4333 78.8241 54.4482 78.7887 54.4746 78.7627C54.501 78.7366 54.5368 78.7219 54.5741 78.7219H86.6616C86.699 78.7219 86.7348 78.7366 86.7611 78.7627C86.7875 78.7887 86.8024 78.8241 86.8024 78.861C86.8024 78.8978 86.7875 78.9332 86.7611 78.9593C86.7348 78.9853 86.699 79 86.6616 79Z" fill="#3F3D56"/>
<path d="M29.4252 34.2325C29.2117 34.2325 29.0016 34.1789 28.8146 34.077L0.802295 18.8466C0.769599 18.8288 0.745392 18.799 0.734998 18.7636C0.724605 18.7281 0.728876 18.6901 0.746874 18.6578C0.764871 18.6255 0.795122 18.6016 0.830968 18.5913C0.866813 18.5811 0.905317 18.5853 0.938013 18.6031L28.9503 33.8335C29.0932 33.9114 29.2534 33.9529 29.4166 33.9543C29.5798 33.9558 29.7408 33.917 29.885 33.8416L58.3584 19.0037C58.3748 18.9951 58.3927 18.9898 58.4111 18.9881C58.4295 18.9864 58.4481 18.9883 58.4658 18.9937C58.4835 18.9991 58.4999 19.0078 58.5141 19.0195C58.5284 19.0312 58.5401 19.0455 58.5488 19.0616C58.5574 19.0778 58.5627 19.0955 58.5644 19.1137C58.5661 19.1319 58.5642 19.1502 58.5587 19.1677C58.5532 19.1852 58.5443 19.2014 58.5325 19.2154C58.5207 19.2295 58.5061 19.2411 58.4897 19.2496L30.0163 34.0875C29.8342 34.1826 29.6313 34.2324 29.4252 34.2325Z" fill="#3F3D56"/>
<path d="M8.94597 43.6978H5.0054C4.70679 43.6978 4.42043 43.5806 4.20928 43.372C3.99814 43.1635 3.87952 42.8806 3.87952 42.5856C3.87952 42.2906 3.99814 42.0077 4.20928 41.7992C4.42043 41.5906 4.70679 41.4734 5.0054 41.4734H8.94597C9.24457 41.4734 9.53095 41.5906 9.74209 41.7992C9.95323 42.0077 10.0718 42.2906 10.0718 42.5856C10.0718 42.8806 9.95323 43.1635 9.74209 43.372C9.53095 43.5806 9.24457 43.6978 8.94597 43.6978Z" fill="#3F3D56"/>
<path d="M13.5902 47.4514H5.0054C4.70679 47.4514 4.42043 47.3342 4.20928 47.1257C3.99814 46.9171 3.87952 46.6342 3.87952 46.3392C3.87952 46.0443 3.99814 45.7614 4.20928 45.5528C4.42043 45.3442 4.70679 45.227 5.0054 45.227H13.5902C13.8888 45.227 14.1752 45.3442 14.3863 45.5528C14.5975 45.7614 14.7161 46.0443 14.7161 46.3392C14.7161 46.6342 14.5975 46.9171 14.3863 47.1257C14.1752 47.3342 13.8888 47.4514 13.5902 47.4514Z" fill="#3F3D56"/>
<path d="M29.414 38.6929C31.9012 38.6929 33.9175 36.7012 33.9175 34.2442C33.9175 31.7872 31.9012 29.7955 29.414 29.7955C26.9268 29.7955 24.9105 31.7872 24.9105 34.2442C24.9105 36.7012 26.9268 38.6929 29.414 38.6929Z" fill="#F2C94C"/>
</g>
<defs>
<clipPath id="clip0">
<rect width="94" height="79" fill="white"/>
</clipPath>
</defs>
</svg>
