<svg width="96" height="75" viewBox="0 0 96 75" fill="none" xmlns="http://www.w3.org/2000/svg">
<g clip-path="url(#clip0_355_921)">
<path d="M17.5033 8.84589C17.3229 8.86561 17.1491 8.92427 16.9941 9.01774C16.8391 9.11121 16.7066 9.23721 16.6061 9.38688C16.5055 9.53654 16.4394 9.70623 16.4122 9.88398C16.385 10.0617 16.3975 10.2432 16.4487 10.4157L12.8597 12.9564L14.9991 13.7721L18.0793 11.2343C18.366 11.1297 18.604 10.9246 18.7483 10.6578C18.8926 10.391 18.9331 10.081 18.8621 9.78663C18.7911 9.49224 18.6136 9.23387 18.3631 9.06048C18.1127 8.8871 17.8068 8.81074 17.5033 8.84589L17.5033 8.84589Z" fill="#FFB8B8"/>
<path d="M17.1696 12.6729L12.7177 17.1106C12.1076 17.7148 11.3031 18.0882 10.444 18.1659L4.94304 18.6631C4.74138 18.6822 4.5379 18.661 4.34463 18.6009C4.15137 18.5407 3.97223 18.4427 3.81782 18.3128C3.6042 18.1357 3.44535 17.9024 3.35952 17.6399C3.27368 17.3773 3.26435 17.0961 3.33259 16.8286C3.40083 16.561 3.54387 16.3179 3.74529 16.1273C3.9467 15.9366 4.19832 15.8061 4.47123 15.7507L10.0911 14.5653L15.2075 10.8289C15.2787 10.7892 15.359 10.7687 15.4407 10.7693C15.5223 10.7699 15.6023 10.7916 15.6728 10.8323L17.0642 11.9615C17.148 12.007 17.2152 12.0772 17.2566 12.1625C17.2979 12.2477 17.3113 12.3436 17.2948 12.4368C17.2786 12.5264 17.2348 12.6089 17.1696 12.6729Z" fill="#2F2E41"/>
<path d="M70.5438 15.0578C70.577 14.7549 70.5152 14.4492 70.3668 14.1823C70.2184 13.9154 69.9907 13.7002 69.7146 13.566L42.0092 0.150877C41.833 0.0654832 41.6416 0.0153043 41.4458 0.0032064C41.25 -0.00889153 41.0538 0.0173274 40.8683 0.0803668C40.6827 0.143406 40.5116 0.242032 40.3645 0.370611C40.2174 0.499191 40.0974 0.655205 40.0112 0.82975L40.0107 0.83078L29.6194 21.8936C29.4459 22.2464 29.4208 22.6529 29.5494 23.0241C29.6781 23.3952 29.95 23.7007 30.3057 23.8735L58.0111 37.2886C58.3672 37.4604 58.7775 37.4853 59.1522 37.3579C59.5268 37.2304 59.8351 36.961 60.0096 36.6087L70.4009 15.5459C70.4768 15.3927 70.5252 15.2275 70.5438 15.0578V15.0578Z" fill="#F2F2F2"/>
<path d="M54.3131 61.8069H18.3639C17.9113 61.8064 17.4774 61.628 17.1574 61.311C16.8373 60.9939 16.6573 60.5641 16.6568 60.1157V11.7675C16.6573 11.3191 16.8373 10.8893 17.1574 10.5722C17.4774 10.2552 17.9113 10.0768 18.3639 10.0763H54.3131C54.7656 10.0768 55.1996 10.2552 55.5196 10.5722C55.8396 10.8893 56.0196 11.3191 56.0201 11.7675V60.1157C56.0196 60.5641 55.8396 60.9939 55.5196 61.311C55.1996 61.628 54.7656 61.8064 54.3131 61.8069Z" fill="white"/>
<path d="M27.8988 24.4933C29.1941 24.4933 30.2442 23.453 30.2442 22.1697C30.2442 20.8865 29.1941 19.8462 27.8988 19.8462C26.6035 19.8462 25.5534 20.8865 25.5534 22.1697C25.5534 23.453 26.6035 24.4933 27.8988 24.4933Z" fill="#E6E6E6"/>
<path d="M24.3242 28.5203C24.6556 28.7069 25.0024 28.8653 25.3609 28.9937L25.4243 29.0154C26.1464 29.2666 26.9064 29.3944 27.6717 29.3936C27.8257 29.3936 27.9741 29.3882 28.1127 29.3778C28.4499 29.3574 28.7851 29.3116 29.1154 29.2409C29.2966 29.2016 29.4773 29.1547 29.6521 29.1016C29.6944 29.0892 29.7335 29.0771 29.7764 29.0638C30.4889 28.8349 31.1583 28.4912 31.7579 28.0465C31.7098 27.9564 31.6571 27.8687 31.6 27.7837C31.2917 27.3171 30.8709 26.934 30.3755 26.6691C29.8801 26.4042 29.3259 26.2658 28.7629 26.2666H27.5285C26.8774 26.2667 26.2401 26.4522 25.6924 26.801C25.1447 27.1498 24.7098 27.6472 24.4393 28.234C24.3961 28.3274 24.3577 28.423 24.3242 28.5203Z" fill="#E6E6E6"/>
<path d="M28.6946 29.183C28.6158 29.1888 28.54 29.2151 28.4749 29.2594C28.8058 29.239 29.1347 29.1937 29.4588 29.1241L28.6946 29.183Z" fill="#2F2E41"/>
<path d="M28.0409 15.8644C26.5304 15.8645 25.0621 16.3587 23.864 17.2701C22.666 18.1816 21.8051 19.4594 21.4151 20.9051C21.0251 22.3509 21.1277 23.8837 21.707 25.2658C22.2864 26.6479 23.31 27.8018 24.6191 28.5485C24.9666 28.7479 25.3314 28.9161 25.7091 29.0512L25.7733 29.0732C26.5019 29.3266 27.2687 29.4556 28.0409 29.4547C28.1903 29.4547 28.3396 29.4498 28.4865 29.4388C28.8266 29.4181 29.1645 29.3719 29.4975 29.3006C29.6839 29.2603 29.8666 29.2126 30.0394 29.16C30.0814 29.1478 30.1209 29.1355 30.1641 29.1221C31.7166 28.6211 33.0378 27.5879 33.8903 26.2083C34.7427 24.8287 35.0705 23.193 34.8146 21.5954C34.5588 19.9978 33.7361 18.543 32.4945 17.4925C31.2528 16.442 29.6737 15.8647 28.0409 15.8644L28.0409 15.8644ZM32.0206 27.75C31.4289 28.2023 30.7628 28.5502 30.0518 28.7784C30.0135 28.7907 29.974 28.8029 29.9345 28.8151C29.7703 28.8653 29.5975 28.9093 29.4197 28.9472C29.1047 29.0153 28.7849 29.0595 28.4631 29.0793C28.3236 29.0891 28.1816 29.0939 28.0409 29.0939C27.31 29.0944 26.5842 28.9724 25.8943 28.7332L25.8338 28.7124C25.4581 28.5786 25.096 28.4099 24.7524 28.2085C23.5557 27.5106 22.6166 26.4508 22.073 25.1848C21.5293 23.9189 21.4099 22.5136 21.7322 21.1754C22.0545 19.8372 22.8016 18.6368 23.8636 17.7504C24.9257 16.8641 26.2467 16.3386 27.6326 16.2511C29.0184 16.1637 30.396 16.5189 31.563 17.2646C32.73 18.0103 33.6247 19.1072 34.1158 20.3941C34.6069 21.6809 34.6684 23.0899 34.2912 24.4139C33.9141 25.7379 33.1183 26.9072 32.0206 27.75V27.75Z" fill="#CCCCCC"/>
<path d="M54.3131 61.8069H18.3639C17.9113 61.8064 17.4774 61.628 17.1574 61.311C16.8373 60.9939 16.6573 60.5641 16.6568 60.1157V11.7675C16.6573 11.3191 16.8373 10.8893 17.1574 10.5722C17.4774 10.2552 17.9113 10.0768 18.3639 10.0763H54.3131C54.7656 10.0768 55.1996 10.2552 55.5196 10.5722C55.8396 10.8893 56.0196 11.3191 56.0201 11.7675V60.1157C56.0196 60.5641 55.8396 60.9939 55.5196 61.311C55.1996 61.628 54.7656 61.8064 54.3131 61.8069ZM18.3639 10.2753C17.9645 10.2757 17.5817 10.4331 17.2993 10.7128C17.0169 10.9926 16.8581 11.3719 16.8576 11.7675V60.1157C16.8581 60.5113 17.0169 60.8906 17.2993 61.1703C17.5817 61.4501 17.9645 61.6075 18.3639 61.6079H54.3131C54.7124 61.6075 55.0953 61.4501 55.3776 61.1703C55.66 60.8906 55.8189 60.5113 55.8193 60.1157V11.7675C55.8189 11.3719 55.66 10.9926 55.3776 10.7128C55.0953 10.4331 54.7124 10.2757 54.3131 10.2753L18.3639 10.2753Z" fill="#CCCCCC"/>
<path d="M47.3537 22.6333H37.1813C36.9678 22.6333 36.7632 22.5493 36.6122 22.3998C36.4613 22.2503 36.3765 22.0475 36.3765 21.8361C36.3765 21.6246 36.4613 21.4218 36.6122 21.2723C36.7632 21.1228 36.9678 21.0388 37.1813 21.0388H47.3537C47.5671 21.0388 47.7718 21.1228 47.9227 21.2723C48.0736 21.4218 48.1584 21.6246 48.1584 21.8361C48.1584 22.0475 48.0736 22.2503 47.9227 22.3998C47.7718 22.5493 47.5671 22.6333 47.3537 22.6333V22.6333Z" fill="#E6E6E6"/>
<path d="M50.6732 25.3241H37.1813C36.9678 25.3241 36.7632 25.2401 36.6122 25.0906C36.4613 24.941 36.3765 24.7383 36.3765 24.5268C36.3765 24.3154 36.4613 24.1126 36.6122 23.9631C36.7632 23.8135 36.9678 23.7296 37.1813 23.7296H50.6732C50.8867 23.7296 51.0914 23.8135 51.2423 23.9631C51.3932 24.1126 51.478 24.3154 51.478 24.5268C51.478 24.7383 51.3932 24.941 51.2423 25.0906C51.0914 25.2401 50.8867 25.3241 50.6732 25.3241V25.3241Z" fill="#E6E6E6"/>
<path d="M47.3389 35.6442H22.0036C21.7902 35.6442 21.5855 35.5602 21.4346 35.4107C21.2836 35.2612 21.1989 35.0584 21.1989 34.8469C21.1989 34.6355 21.2836 34.4327 21.4346 34.2832C21.5855 34.1337 21.7902 34.0497 22.0036 34.0497H47.3389C47.5523 34.0497 47.757 34.1337 47.9079 34.2832C48.0589 34.4327 48.1436 34.6355 48.1436 34.8469C48.1436 35.0584 48.0589 35.2612 47.9079 35.4107C47.757 35.5602 47.5523 35.6442 47.3389 35.6442V35.6442Z" fill="#E6E6E6"/>
<path d="M50.6585 38.335H22.0036C21.7902 38.335 21.5855 38.251 21.4346 38.1014C21.2836 37.9519 21.1989 37.7491 21.1989 37.5377C21.1989 37.3262 21.2836 37.1235 21.4346 36.9739C21.5855 36.8244 21.7902 36.7404 22.0036 36.7404H50.6585C50.8719 36.7404 51.0766 36.8244 51.2275 36.9739C51.3785 37.1235 51.4633 37.3262 51.4633 37.5377C51.4633 37.7491 51.3785 37.9519 51.2275 38.1014C51.0766 38.251 50.8719 38.335 50.6585 38.335V38.335Z" fill="#E6E6E6"/>
<path d="M47.3389 44.5193H22.0036C21.7902 44.5193 21.5855 44.4353 21.4346 44.2858C21.2836 44.1363 21.1989 43.9335 21.1989 43.7221C21.1989 43.5106 21.2836 43.3078 21.4346 43.1583C21.5855 43.0088 21.7902 42.9248 22.0036 42.9248H47.3389C47.5523 42.9248 47.757 43.0088 47.9079 43.1583C48.0589 43.3078 48.1436 43.5106 48.1436 43.7221C48.1436 43.9335 48.0589 44.1363 47.9079 44.2858C47.757 44.4353 47.5523 44.5193 47.3389 44.5193Z" fill="#E6E6E6"/>
<path d="M50.6585 47.2101H22.0036C21.7902 47.2101 21.5855 47.1261 21.4346 46.9766C21.2836 46.827 21.1989 46.6243 21.1989 46.4128C21.1989 46.2014 21.2836 45.9986 21.4346 45.8491C21.5855 45.6996 21.7902 45.6156 22.0036 45.6156H50.6585C50.8719 45.6156 51.0766 45.6996 51.2275 45.8491C51.3785 45.9986 51.4633 46.2014 51.4633 46.4128C51.4633 46.6243 51.3785 46.827 51.2275 46.9766C51.0766 47.1261 50.8719 47.2101 50.6585 47.2101V47.2101Z" fill="#E6E6E6"/>
<path d="M47.3389 53.3945H22.0036C21.7902 53.3945 21.5855 53.3105 21.4346 53.1609C21.2836 53.0114 21.1989 52.8086 21.1989 52.5972C21.1989 52.3858 21.2836 52.183 21.4346 52.0334C21.5855 51.8839 21.7902 51.7999 22.0036 51.7999H47.3389C47.5523 51.7999 47.757 51.8839 47.9079 52.0334C48.0589 52.183 48.1436 52.3858 48.1436 52.5972C48.1436 52.8086 48.0589 53.0114 47.9079 53.1609C47.757 53.3105 47.5523 53.3945 47.3389 53.3945Z" fill="#E6E6E6"/>
<path d="M50.6585 56.0852H22.0036C21.7902 56.0852 21.5855 56.0012 21.4346 55.8517C21.2836 55.7022 21.1989 55.4994 21.1989 55.2879C21.1989 55.0765 21.2836 54.8737 21.4346 54.7242C21.5855 54.5747 21.7902 54.4907 22.0036 54.4907H50.6585C50.8718 54.4909 51.0762 54.575 51.2269 54.7245C51.3776 54.874 51.4622 55.0766 51.4622 55.2879C51.4622 55.4992 51.3776 55.7018 51.2269 55.8513C51.0762 56.0008 50.8718 56.0849 50.6585 56.0852V56.0852Z" fill="#E6E6E6"/>
<path d="M69.3095 28.8768C69.3427 28.5739 69.2808 28.2682 69.1325 28.0013C68.9841 27.7344 68.7564 27.5192 68.4803 27.385L40.7749 13.9699C40.5987 13.8845 40.4072 13.8343 40.2115 13.8222C40.0157 13.8101 39.8195 13.8363 39.6339 13.8994C39.4484 13.9624 39.2772 14.061 39.1302 14.1896C38.9831 14.3182 38.8631 14.4742 38.7769 14.6488L38.7764 14.6498L28.3851 35.7126C28.2116 36.0654 28.1865 36.4719 28.3151 36.8431C28.4438 37.2142 28.7157 37.5197 29.0713 37.6925L56.7767 51.1076C57.1329 51.2794 57.5432 51.3043 57.9178 51.1769C58.2925 51.0494 58.6008 50.78 58.7752 50.4277L69.1666 29.3649C69.2425 29.2117 69.2908 29.0465 69.3095 28.8768V28.8768Z" fill="white"/>
<path d="M69.3095 28.8768C69.3427 28.5739 69.2808 28.2682 69.1325 28.0013C68.9841 27.7344 68.7564 27.5192 68.4803 27.385L40.7749 13.9699C40.5987 13.8845 40.4072 13.8343 40.2115 13.8222C40.0157 13.8101 39.8195 13.8363 39.6339 13.8994C39.4484 13.9624 39.2772 14.061 39.1302 14.1896C38.9831 14.3182 38.8631 14.4742 38.7769 14.6488L38.7764 14.6498L28.3851 35.7126C28.2116 36.0654 28.1865 36.4719 28.3151 36.8431C28.4438 37.2142 28.7157 37.5197 29.0713 37.6925L56.7767 51.1076C57.1329 51.2794 57.5432 51.3043 57.9178 51.1769C58.2925 51.0494 58.6008 50.78 58.7752 50.4277L69.1666 29.3649C69.2425 29.2117 69.2908 29.0465 69.3095 28.8768V28.8768ZM58.6173 50.3512C58.4635 50.6622 58.1914 50.8999 57.8608 51.0124C57.5302 51.1248 57.1681 51.1028 56.8539 50.9512L29.1485 37.5361C28.8347 37.3836 28.5947 37.1141 28.4812 36.7866C28.3677 36.4591 28.3899 36.1004 28.543 35.7891L38.9343 14.7263C39.0882 14.4153 39.3602 14.1776 39.6908 14.0651C40.0214 13.9526 40.3835 13.9747 40.6977 14.1263L68.4031 27.5414C68.7169 27.6939 68.9569 27.9634 69.0704 28.2909C69.1839 28.6184 69.1617 28.9771 69.0086 29.2884L58.6173 50.3512Z" fill="#3F3D56"/>
<path d="M66.2875 29.8346L59.0316 44.5421C58.9832 44.6403 58.8974 44.7154 58.7931 44.7509C58.6888 44.7864 58.5745 44.7795 58.4754 44.7315H58.4754L33.2736 32.5287C33.2556 32.5201 33.2383 32.5101 33.222 32.4986C33.1394 32.4429 33.0798 32.3595 33.0542 32.2638C33.0285 32.1681 33.0386 32.0664 33.0825 31.9774L40.3384 17.2699C40.3624 17.2213 40.3958 17.1778 40.4367 17.142C40.4776 17.1061 40.5253 17.0786 40.5769 17.061C40.6286 17.0435 40.6832 17.0361 40.7377 17.0394C40.7922 17.0428 40.8455 17.0567 40.8946 17.0805V17.0805L66.0964 29.2833C66.1955 29.3313 66.2714 29.4162 66.3072 29.5196C66.3431 29.6229 66.336 29.7361 66.2876 29.8343V29.8343L66.2875 29.8346Z" fill="#E6E6E6"/>
<path d="M44.1623 29.0876C46.178 29.0876 47.812 27.4688 47.812 25.4719C47.812 23.4749 46.178 21.8561 44.1623 21.8561C42.1466 21.8561 40.5125 23.4749 40.5125 25.4719C40.5125 27.4688 42.1466 29.0876 44.1623 29.0876Z" fill="#F2C94C"/>
<path d="M49.5063 40.4616L33.4203 32.6726C33.4 32.6631 33.3807 32.6518 33.3625 32.6388L47.4113 23.2672C47.4979 23.2084 47.5986 23.1734 47.7033 23.1658C47.808 23.1581 47.9128 23.1782 48.0071 23.2238C48.1014 23.2695 48.1818 23.3391 48.24 23.4256C48.2982 23.5121 48.3323 23.6124 48.3386 23.7162L49.1222 34.9497L49.1599 35.4874L49.5063 40.4616Z" fill="#3F3D56"/>
<path opacity="0.2" d="M49.5063 40.4616L44.0141 37.8022L48.6243 35.228L48.9562 35.0426L49.1221 34.9498L49.1599 35.4874L49.5063 40.4616Z" fill="black"/>
<path d="M58.4628 44.7984L44.5497 38.0616L49.1598 35.4874L49.4917 35.3018L55.4993 31.9469C55.8931 31.7271 56.4574 31.9748 56.5854 32.3954C56.5938 32.4239 56.6004 32.453 56.6051 32.4824L58.4628 44.7984Z" fill="#3F3D56"/>
<path d="M15.5343 46.0821L17.0476 46.082L17.7676 40.2991L15.5339 40.2992L15.5343 46.0821Z" fill="#FFB8B8"/>
<path d="M15.1483 45.5926L18.1287 45.5925H18.1288C18.3782 45.5925 18.6252 45.6412 18.8556 45.7357C19.0861 45.8303 19.2954 45.9689 19.4718 46.1436C19.6482 46.3183 19.7881 46.5258 19.8835 46.7541C19.979 46.9824 20.0281 47.227 20.0281 47.4741V47.5353L15.1484 47.5355L15.1483 45.5926Z" fill="#2F2E41"/>
<path d="M3.77124 45.1275L5.33919 45.4313L7.26834 39.5845L4.9543 39.136L3.77124 45.1275Z" fill="#FFB8B8"/>
<path d="M3.47152 44.5428L6.55933 45.1412L6.55945 45.1413C6.81787 45.1913 7.0638 45.2914 7.2832 45.4356C7.50259 45.5798 7.69117 45.7655 7.83814 45.9819C7.98512 46.1984 8.08762 46.4414 8.1398 46.6971C8.19198 46.9527 8.19281 47.2161 8.14225 47.4721L8.12974 47.5355L3.0741 46.5557L3.47152 44.5428Z" fill="#2F2E41"/>
<path d="M17.7359 26.1337C17.6847 25.9612 17.5959 25.802 17.4758 25.6672C17.3558 25.5324 17.2073 25.4253 17.041 25.3535C16.8746 25.2817 16.6944 25.2469 16.5129 25.2516C16.3315 25.2562 16.1534 25.3002 15.991 25.3805L12.8365 22.3257L12.4013 24.5553L15.4635 27.1144C15.6177 27.3757 15.8633 27.5719 16.1538 27.6658C16.4442 27.7597 16.7593 27.7448 17.0394 27.624C17.3195 27.5031 17.5452 27.2846 17.6735 27.0099C17.8019 26.7353 17.8241 26.4235 17.7359 26.1337V26.1337Z" fill="#FFB8B8"/>
<path d="M6.03264 10.4104C7.70709 10.4104 9.06449 9.06558 9.06449 7.40673C9.06449 5.74787 7.70709 4.40311 6.03264 4.40311C4.3582 4.40311 3.00079 5.74787 3.00079 7.40673C3.00079 9.06558 4.3582 10.4104 6.03264 10.4104Z" fill="#FFB8B8"/>
<path d="M5.396 10.4563C5.55708 10.5262 5.88696 9.25453 5.73919 9.0002C5.51944 8.62196 5.53243 8.62467 5.38654 8.37443C5.24066 8.12418 5.20802 7.78166 5.39693 7.56148C5.58585 7.34129 6.02303 7.3705 6.10924 7.64657C6.05378 7.1222 6.57732 6.7007 7.09591 6.58224C7.6145 6.46379 8.16151 6.53733 8.68296 6.43193C9.28812 6.30959 9.91776 5.80705 9.67631 5.14777C9.63488 5.03801 9.57285 4.93701 9.49349 4.8501C9.21452 4.53937 8.82429 4.40668 8.44276 4.27839C7.64902 4.01149 6.83357 3.74124 5.99588 3.7707C5.30568 3.80646 4.64096 4.04077 4.08308 4.44496C3.5252 4.84915 3.09835 5.40569 2.85476 6.04647C2.79703 6.20677 2.75231 6.37138 2.72102 6.53874C2.4335 8.07035 3.33128 9.58111 4.78944 10.1643L5.396 10.4563Z" fill="#2F2E41"/>
<path d="M4.6515 26.9565C4.57417 26.9101 4.5122 26.8424 4.47321 26.7617C4.43422 26.6809 4.41991 26.5906 4.43204 26.5019L3.06394 19.7879L1.67715 14.6352H1.67718C1.52493 14.0705 1.57092 13.4714 1.80758 12.9361C2.04424 12.4008 2.45753 11.961 2.97965 11.689L3.89645 10.8297L5.89649 11.6833L6.84687 12.6406C7.52852 12.9694 8.13318 13.4359 8.622 14.0101C9.11082 14.5842 9.47297 15.2533 9.68517 15.9744L11.2095 21.1418L14.7297 26.3303C14.7885 26.4168 14.816 26.5204 14.8077 26.6243C14.7994 26.7283 14.7558 26.8263 14.6841 26.9026C14.1944 27.4245 4.6515 26.9565 4.6515 26.9565Z" fill="#2F2E41"/>
<path d="M13.8743 26.4795L8.68354 22.9159C7.97605 22.4269 7.46386 21.7077 7.23596 20.8834L5.77688 15.6054C5.72256 15.412 5.70791 15.2099 5.73381 15.0108C5.7597 14.8118 5.8256 14.6199 5.92762 14.4465C6.06618 14.2071 6.27009 14.0112 6.51595 13.8814C6.7618 13.7517 7.03962 13.6932 7.31749 13.7128C7.59536 13.7325 7.86201 13.8293 8.08681 13.9923C8.3116 14.1553 8.48542 14.3779 8.5883 14.6343L10.7522 19.9076L15.3627 24.2424C15.4146 24.3048 15.4491 24.3796 15.4628 24.4593C15.4766 24.539 15.469 24.6209 15.4409 24.6968L14.5629 26.252C14.5324 26.3416 14.4743 26.4195 14.3969 26.4748C14.3194 26.5301 14.2265 26.5599 14.131 26.5602C14.0391 26.5601 13.9495 26.5319 13.8743 26.4795V26.4795Z" fill="#2F2E41"/>
<path d="M3.09051 44.2325C3.04807 44.1723 3.0209 44.1028 3.01128 44.0299C3.00167 43.9571 3.0099 43.883 3.03527 43.8139L5.43665 35.1655L5.61416 26.6912L13.6979 26.142L13.7371 26.1394L16.1719 30.5112C16.9342 31.878 17.4008 33.3872 17.5421 34.9425L18.3445 43.6533C18.3566 43.7717 18.3214 43.8901 18.2464 43.983C18.1713 44.076 18.0625 44.1361 17.9432 44.1504L15.5058 44.38C15.3884 44.3942 15.27 44.3623 15.1759 44.2912C15.0819 44.2202 15.0196 44.1155 15.0023 43.9995L14.0125 35.1477L10.4513 29.1865L9.25589 35.4623L6.77931 44.1291C6.74693 44.2156 6.68875 44.2903 6.61251 44.3433C6.53626 44.3963 6.44555 44.425 6.35242 44.4257L3.46387 44.4269C3.39033 44.4273 3.31782 44.4097 3.25273 44.3758C3.18763 44.3419 3.13193 44.2927 3.09051 44.2325V44.2325Z" fill="#2F2E41"/>
<path d="M64.9875 72.6764H4.07357C2.99356 72.6752 1.95815 72.2497 1.19447 71.4931C0.43079 70.7365 0.00121997 69.7108 0 68.6408V35.4996C0.00121997 34.4297 0.43079 33.4039 1.19447 32.6473C1.95815 31.8908 2.99356 31.4652 4.07357 31.464H11.5421C12.5555 31.4631 13.5326 31.8373 14.2819 32.5132L22.3811 38.2427C22.9091 38.7208 23.5987 38.9856 24.314 38.9849H65.3658C65.9057 38.9849 66.4403 39.0913 66.9384 39.2978C67.4365 39.5043 67.8882 39.8069 68.2672 40.1879C68.6462 40.5689 68.945 41.0208 69.1461 41.5172C69.3473 42.0136 69.4468 42.5447 69.4389 43.0796L69.0607 68.6998C69.0407 69.7584 68.6033 70.7672 67.842 71.5104C67.0808 72.2536 66.0563 72.6721 64.9875 72.6764V72.6764Z" fill="white"/>
<path d="M64.4463 70.7198H4.43387C3.91287 70.7192 3.41337 70.5139 3.04497 70.1489C2.67657 69.7839 2.46934 69.2891 2.46875 68.7729V35.0898C2.46934 34.5737 2.67657 34.0789 3.04497 33.7139C3.41337 33.3489 3.91287 33.1436 4.43387 33.143C4.89469 33.1435 5.33649 33.3251 5.66234 33.6479C5.98819 33.9707 6.17148 34.4084 6.17199 34.865V66.4494C6.17255 66.9331 6.36676 67.3969 6.71202 67.7389C7.05728 68.081 7.5254 68.2734 8.01367 68.2739H64.2436C64.523 68.2708 64.7953 68.3605 65.0172 68.5287C65.239 68.6969 65.3976 68.9339 65.4676 69.2018C65.546 69.4558 65.5363 69.7286 65.4399 69.9765C65.3435 70.2244 65.1661 70.4332 64.9359 70.5696C64.79 70.6637 64.6204 70.7157 64.4463 70.7198V70.7198Z" fill="#F2F2F2"/>
<path d="M34.9865 54.5439L34.8285 54.3873C34.7957 54.357 34.7765 54.3149 34.7751 54.2705C34.7736 54.2261 34.79 54.183 34.8206 54.1505C34.8232 54.1478 34.8258 54.1452 34.8285 54.1427L36.2147 52.7682C36.2299 52.7521 36.2481 52.7392 36.2684 52.7301C36.2886 52.721 36.3104 52.716 36.3326 52.7152C36.3548 52.7145 36.3769 52.7181 36.3977 52.7259C36.4185 52.7336 36.4376 52.7454 36.4538 52.7604C36.4565 52.7629 36.4591 52.7655 36.4616 52.7682L37.8479 54.1415C37.8641 54.157 37.877 54.1755 37.886 54.196C37.895 54.2165 37.8998 54.2385 37.9002 54.2608C37.9006 54.2831 37.8966 54.3053 37.8883 54.3261C37.8801 54.3469 37.8678 54.3658 37.8521 54.3819L37.8479 54.3861L37.6899 54.5426C37.6742 54.5587 37.6555 54.5715 37.6348 54.5804C37.6142 54.5894 37.592 54.5941 37.5694 54.5945C37.5469 54.5949 37.5245 54.5909 37.5035 54.5827C37.4826 54.5746 37.4634 54.5624 37.4472 54.5469L37.443 54.5426L36.6233 53.6866V55.7179C36.6235 55.74 36.6192 55.762 36.6108 55.7825C36.6024 55.8031 36.59 55.8218 36.5743 55.8376C36.5586 55.8533 36.5399 55.8659 36.5193 55.8745C36.4987 55.8832 36.4766 55.8877 36.4542 55.8878L36.453 55.8879H36.2246C36.1791 55.8879 36.1355 55.8699 36.1033 55.8381C36.0711 55.8062 36.053 55.763 36.053 55.7179V55.7179V53.689L35.2334 54.5451C35.2016 54.5774 35.1582 54.5958 35.1127 54.5964C35.0672 54.5969 35.0233 54.5796 34.9907 54.5481L34.9865 54.5439Z" fill="#F2C94C"/>
<path d="M36.3356 51.5196C36.892 51.5196 37.4359 51.683 37.8985 51.9893C38.3612 52.2955 38.7217 52.7308 38.9347 53.2401C39.1476 53.7493 39.2033 54.3097 39.0948 54.8503C38.9862 55.391 38.7183 55.8876 38.3248 56.2774C37.9314 56.6671 37.4301 56.9326 36.8844 57.0401C36.3387 57.1477 35.7731 57.0925 35.259 56.8815C34.745 56.6706 34.3056 56.3133 33.9965 55.855C33.6874 55.3967 33.5224 54.8578 33.5224 54.3066C33.523 53.5677 33.8196 52.8591 34.3471 52.3366C34.8745 51.8141 35.5897 51.5202 36.3356 51.5196ZM36.3356 51.1527C35.7059 51.1527 35.0904 51.3377 34.5669 51.6842C34.0434 52.0308 33.6353 52.5234 33.3944 53.0997C33.1534 53.676 33.0904 54.3101 33.2132 54.9219C33.336 55.5337 33.6393 56.0957 34.0845 56.5368C34.5297 56.9779 35.097 57.2782 35.7145 57.3999C36.3321 57.5216 36.9722 57.4592 37.5539 57.2205C38.1356 56.9818 38.6328 56.5775 38.9826 56.0589C39.3324 55.5402 39.5191 54.9304 39.5191 54.3066V54.3066C39.5191 53.4702 39.1837 52.6679 38.5867 52.0765C37.9897 51.485 37.1799 51.1527 36.3356 51.1527V51.1527Z" fill="#3F3D56"/>
<path d="M64.9875 72.6764H4.07357C2.99356 72.6752 1.95815 72.2497 1.19447 71.4931C0.43079 70.7365 0.00121997 69.7108 0 68.6408V35.4996C0.00121997 34.4297 0.43079 33.4039 1.19447 32.6473C1.95815 31.8908 2.99356 31.4652 4.07357 31.464H11.5421C12.5555 31.4631 13.5326 31.8373 14.2819 32.5132L22.3811 38.2427C22.9091 38.7208 23.5987 38.9856 24.314 38.9849H65.3658C65.9057 38.9849 66.4403 39.0913 66.9384 39.2978C67.4365 39.5043 67.8882 39.8069 68.2672 40.1879C68.6462 40.5689 68.945 41.0208 69.1461 41.5172C69.3473 42.0136 69.4468 42.5447 69.4389 43.0796L69.0607 68.6998C69.0407 69.7584 68.6033 70.7672 67.842 71.5104C67.0808 72.2536 66.0563 72.6721 64.9875 72.6764V72.6764ZM4.07357 31.7086C3.05902 31.7097 2.08636 32.1095 1.36897 32.8202C0.651574 33.5309 0.248036 34.4945 0.246883 35.4996V68.6408C0.248036 69.6459 0.651574 70.6095 1.36897 71.3202C2.08636 72.0309 3.05902 72.4307 4.07357 72.4319H64.9875C65.9915 72.4278 66.954 72.0346 67.6691 71.3365C68.3841 70.6383 68.795 69.6907 68.8138 68.6962L69.1921 43.076C69.1995 42.5735 69.106 42.0746 68.917 41.6083C68.728 41.1419 68.4474 40.7175 68.0914 40.3596C67.7353 40.0016 67.311 39.7174 66.8431 39.5234C66.3752 39.3294 65.873 39.2295 65.3658 39.2295H24.314C23.5397 39.2302 22.793 38.9445 22.2202 38.4284L14.121 32.6988C13.4165 32.061 12.4965 31.7078 11.5421 31.7086H4.07357Z" fill="#3F3D56"/>
<path d="M70.15 73.3216H68.6366L68.1636 67.5387L70.1502 67.5388L70.15 73.3216Z" fill="#FFB8B8"/>
<path d="M70.5358 74.775L65.6561 74.7749V74.7137C65.6561 74.4666 65.7052 74.2219 65.8007 73.9936C65.8961 73.7653 66.0361 73.5579 66.2124 73.3832C66.3888 73.2085 66.5982 73.0699 66.8286 72.9753C67.059 72.8807 67.306 72.8321 67.5555 72.8321H67.5556L70.5359 72.8322L70.5358 74.775Z" fill="#2F2E41"/>
<path d="M87.0613 73.3216H85.5479L84.828 67.5387L87.0616 67.5388L87.0613 73.3216Z" fill="#FFB8B8"/>
<path d="M87.4474 74.775L82.5677 74.7749V74.7137C82.5677 74.4666 82.6168 74.2219 82.7123 73.9936C82.8077 73.7653 82.9476 73.5579 83.124 73.3832C83.3003 73.2085 83.5097 73.0699 83.7402 72.9753C83.9706 72.8807 84.2176 72.8321 84.467 72.8321H84.4671L87.4475 72.8322L87.4474 74.775Z" fill="#2F2E41"/>
<path d="M82.0852 55.4443C82.2941 55.2017 82.4118 54.895 82.4184 54.5762C82.425 54.2574 82.3199 53.9462 82.1212 53.6954C82.0809 53.6473 82.0367 53.6027 81.989 53.5619L83.1288 49.3928L81.229 50.0172L80.4379 53.8805C80.3065 54.1187 80.2485 54.3898 80.2708 54.6604C80.2931 54.9309 80.3948 55.189 80.5634 55.403C80.6516 55.5185 80.7649 55.6128 80.8949 55.6791C81.0248 55.7454 81.1682 55.7818 81.3143 55.7858C81.4604 55.7898 81.6056 55.7611 81.739 55.702C81.8724 55.6429 81.9908 55.5548 82.0852 55.4443Z" fill="#FFB8B8"/>
<path d="M82.0122 52.8797C81.9884 52.8797 81.9646 52.8779 81.941 52.8744L80.9511 52.7265C80.8741 52.7134 80.8009 52.6837 80.7366 52.6397C80.6724 52.5956 80.6187 52.5381 80.5792 52.4712C80.4934 52.329 80.4626 52.1607 80.4924 51.9977L81.7275 45.1638L80.8899 40.7733C80.7283 39.9284 81.145 39.075 81.859 38.7883C82.0708 38.7024 82.3015 38.6725 82.5285 38.7013C82.7555 38.7301 82.9711 38.8167 83.1543 38.9527C83.3519 39.1009 83.5157 39.2887 83.6353 39.5037C83.7548 39.7188 83.8274 39.9564 83.8482 40.2011L84.441 45.7992L84.4339 45.8235L82.5259 52.4577C82.4985 52.5739 82.4334 52.678 82.3406 52.7542C82.2479 52.8304 82.1326 52.8745 82.0122 52.8797Z" fill="#6C63FF"/>
<path d="M81.7199 36.3688C83.3943 36.3688 84.7518 35.024 84.7518 33.3651C84.7518 31.7063 83.3943 30.3615 81.7199 30.3615C80.0455 30.3615 78.688 31.7063 78.688 33.3651C78.688 35.024 80.0455 36.3688 81.7199 36.3688Z" fill="#FFB8B8"/>
<path d="M80.1676 47.3273C80.092 47.3273 80.0172 47.3135 79.9467 47.2865L75.1546 45.4605C75.0249 45.4115 74.9158 45.3204 74.8449 45.2021C74.7741 45.0838 74.7457 44.9453 74.7644 44.809L74.9569 43.379C74.8427 42.8721 74.8532 42.3454 74.9875 41.8434C75.1217 41.3413 75.3758 40.8786 75.7283 40.4941L75.845 40.3669L77.2628 37.8057C77.3588 37.6321 77.4886 37.4792 77.6446 37.3556C77.8007 37.232 77.9798 37.1402 78.1718 37.0855C78.3638 37.0309 78.5648 37.0144 78.7633 37.0371C78.9617 37.0598 79.1537 37.1212 79.3281 37.2177L81.8317 38.6038C82.1613 38.7859 82.4101 39.0837 82.5292 39.4385C82.8661 40.4427 82.8411 41.5317 82.4585 42.5198L80.7443 46.9353C80.699 47.0504 80.6197 47.1494 80.5169 47.2193C80.414 47.2892 80.2923 47.3268 80.1676 47.3273V47.3273Z" fill="#6C63FF"/>
<path d="M67.6088 71.9018L67.6023 71.9005C67.5206 71.8849 67.4429 71.8531 67.3739 71.807C67.3049 71.7609 67.246 71.7015 67.2008 71.6323C67.1555 71.563 67.1249 71.4855 67.1107 71.4042C67.0965 71.323 67.0991 71.2397 67.1182 71.1595L70.7904 55.2567C71.3916 52.7357 72.2222 50.2738 73.2718 47.9013L74.8341 44.3724L80.6638 47.009L81.4961 48.5172C82.1452 50.1969 82.4789 51.9799 82.4808 53.7785L88.4043 70.9766C88.4332 71.0606 88.4433 71.1498 88.434 71.238C88.4246 71.3263 88.396 71.4114 88.3501 71.4876C88.3041 71.5638 88.242 71.6292 88.1681 71.6792C88.0941 71.7292 88.01 71.7626 87.9217 71.7772L84.679 71.7409C84.6484 71.7464 84.6174 71.749 84.5863 71.7487C84.4634 71.7488 84.3432 71.7123 84.2415 71.6439C84.1398 71.5756 84.0612 71.4785 84.0158 71.3653L77.2445 53.9771C77.2349 53.954 77.2183 53.9344 77.1971 53.9208C77.1759 53.9073 77.151 53.9005 77.1258 53.9013C77.1011 53.9017 77.0772 53.9096 77.0572 53.924C77.0373 53.9384 77.0223 53.9585 77.0143 53.9816L70.5895 71.4564C70.5402 71.5923 70.4438 71.7064 70.3174 71.7783C70.1911 71.8502 70.043 71.8753 69.8997 71.849L67.6088 71.9018Z" fill="#2F2E41"/>
<path d="M72.0421 52.3453C72.2131 52.2851 72.3686 52.1884 72.4978 52.0622C72.627 51.9359 72.7267 51.7831 72.7898 51.6146C72.853 51.446 72.8781 51.2658 72.8633 51.0866C72.8485 50.9075 72.7943 50.7337 72.7044 50.5775L75.6081 47.2877L73.3368 46.9809L70.9276 50.152C70.6728 50.319 70.4887 50.5728 70.4102 50.8653C70.3316 51.1578 70.3641 51.4687 70.5015 51.7391C70.6389 52.0094 70.8716 52.2205 71.1555 52.3322C71.4395 52.4439 71.7549 52.4486 72.0421 52.3453V52.3453Z" fill="#FFB8B8"/>
<path d="M73.4108 50.0278C73.3098 50.0278 73.2103 50.0032 73.121 49.9562L72.0992 49.4163C72.0242 49.3766 71.9583 49.3221 71.9056 49.2561C71.8529 49.19 71.8145 49.1139 71.7928 49.0325C71.7712 48.9511 71.7667 48.8662 71.7798 48.783C71.7928 48.6998 71.823 48.6201 71.8685 48.5491L75.6427 42.6574L76.2971 38.2112C76.3309 37.9815 76.4115 37.7609 76.5339 37.5628C76.6563 37.3648 76.818 37.1934 77.0092 37.059C77.2004 36.9247 77.4172 36.8302 77.6463 36.7813C77.8755 36.7323 78.1122 36.73 78.3423 36.7743C78.5724 36.8187 78.791 36.9089 78.9849 37.0394C79.1788 37.1699 79.344 37.338 79.4704 37.5336C79.5968 37.7291 79.6818 37.9481 79.7203 38.1771C79.7588 38.4062 79.75 38.6406 79.6944 38.8662L78.3432 44.3463L73.8915 49.8011C73.8336 49.8721 73.7604 49.9294 73.6772 49.9686C73.594 50.0079 73.503 50.0281 73.4108 50.0278V50.0278Z" fill="#6C63FF"/>
<path d="M78.9908 30.8869C79.3415 29.7476 81.3677 29.2393 83.0518 29.712C84.7359 30.1847 85.9458 31.4241 86.2274 32.6358C86.8511 35.3192 83.5981 37.497 84.1875 40.1807C84.5776 41.9562 86.8336 43.635 89.3746 44.0404C86.5743 44.6208 83.1564 44.1106 80.5596 42.7246C78.9435 41.862 77.5875 40.5602 77.608 39.2472C77.6204 38.4522 78.1309 37.7492 78.7552 37.1418C79.3794 36.5345 80.1267 35.9946 80.6997 35.3606C81.2726 34.7267 81.6695 33.9676 81.5023 33.1628C81.3351 32.3581 80.4857 31.5188 79.3428 31.2847L78.9908 30.8869Z" fill="#2F2E41"/>
<path d="M95.8764 75H48.8453C48.8126 75 48.7812 74.9871 48.758 74.9642C48.7349 74.9412 48.7219 74.9101 48.7219 74.8777C48.7219 74.8453 48.7349 74.8142 48.758 74.7912C48.7812 74.7683 48.8126 74.7554 48.8453 74.7554H95.8764C95.9092 74.7554 95.9406 74.7683 95.9637 74.7912C95.9869 74.8142 95.9999 74.8453 95.9999 74.8777C95.9999 74.9101 95.9869 74.9412 95.9637 74.9642C95.9406 74.9871 95.9092 75 95.8764 75Z" fill="#CCCCCC"/>
</g>
<defs>
<clipPath id="clip0_355_921">
<rect width="96" height="75" fill="white"/>
</clipPath>
</defs>
</svg>
