<svg width="17" height="17" viewBox="0 0 17 17" fill="none" xmlns="http://www.w3.org/2000/svg">
<path fill-rule="evenodd" clip-rule="evenodd" d="M12.1556 13.2753C10.9367 14.2503 9.39062 14.8333 7.70834 14.8333C3.77331 14.8333 0.583344 11.6434 0.583344 7.70833C0.583344 3.7733 3.77331 0.583328 7.70834 0.583328C11.6434 0.583328 14.8333 3.7733 14.8333 7.70833C14.8333 9.39066 14.2503 10.9368 13.2752 12.1557L16.1847 15.0652C16.4939 15.3744 16.4939 15.8756 16.1847 16.1848C15.8756 16.494 15.3743 16.494 15.0651 16.1848L12.1556 13.2753ZM2.16668 7.70833C2.16668 4.64775 4.64777 2.16666 7.70834 2.16666C10.7689 2.16666 13.25 4.64775 13.25 7.70833C13.25 9.20129 12.6596 10.5564 11.6996 11.5528C11.6724 11.5737 11.6463 11.5966 11.6214 11.6215C11.5965 11.6464 11.5736 11.6725 11.5527 11.6997C10.5563 12.6596 9.20126 13.25 7.70834 13.25C4.64777 13.25 2.16668 10.7689 2.16668 7.70833Z" fill="#293846"/>
</svg>
