<svg width="20" height="20" viewBox="0 0 20 20" fill="none" xmlns="http://www.w3.org/2000/svg">
<path fill-rule="evenodd" clip-rule="evenodd" d="M9.41074 1.91074C9.56703 1.75446 9.77899 1.66667 10 1.66667C10.221 1.66667 10.433 1.75446 10.5893 1.91074C10.7455 2.06702 10.8333 2.27899 10.8333 2.5V2.575L10.8333 2.57832C10.8351 3.009 10.9627 3.42977 11.2005 3.78885C11.4374 4.14667 11.7735 4.42767 12.1676 4.59751C12.5702 4.77423 13.0165 4.82676 13.4492 4.7483C13.8833 4.66958 14.284 4.4626 14.5994 4.15405L14.5994 4.15409L14.6059 4.14759L14.6559 4.09759L14.6562 4.09726C14.7336 4.01978 14.8256 3.95832 14.9267 3.91638C15.0279 3.87444 15.1363 3.85286 15.2458 3.85286C15.3553 3.85286 15.4638 3.87444 15.5649 3.91638C15.6661 3.95831 15.758 4.01978 15.8354 4.09726L15.8361 4.09792C15.9136 4.17531 15.975 4.26722 16.017 4.36838C16.0589 4.46955 16.0805 4.57799 16.0805 4.6875C16.0805 4.79701 16.0589 4.90545 16.017 5.00662C15.975 5.10778 15.9136 5.19969 15.8361 5.27708L15.8357 5.27741L15.7857 5.32741L15.7857 5.32738L15.7793 5.33395C15.4707 5.64938 15.2638 6.05 15.185 6.48417C15.1167 6.8611 15.1477 7.24831 15.2737 7.60801C15.2836 7.68368 15.3039 7.75781 15.334 7.82828C15.5037 8.22413 15.7854 8.56173 16.1445 8.79953C16.5036 9.03733 16.9243 9.16494 17.355 9.16666L17.3583 9.16667H17.5C17.721 9.16667 17.933 9.25446 18.0893 9.41074C18.2455 9.56703 18.3333 9.77899 18.3333 10C18.3333 10.221 18.2455 10.433 18.0893 10.5893C17.933 10.7455 17.721 10.8333 17.5 10.8333L17.425 10.8333L17.4217 10.8333C16.991 10.8351 16.5702 10.9627 16.2112 11.2005C15.8533 11.4375 15.5723 11.7736 15.4024 12.1677C15.2258 12.5703 15.1732 13.0165 15.2517 13.4492C15.3304 13.8833 15.5374 14.284 15.8459 14.5994L15.8459 14.5994L15.8524 14.6059L15.9024 14.6559L15.9027 14.6562C15.9802 14.7336 16.0417 14.8255 16.0836 14.9267C16.1256 15.0279 16.1471 15.1363 16.1471 15.2458C16.1471 15.3553 16.1256 15.4638 16.0836 15.5649C16.0417 15.6661 15.9802 15.758 15.9027 15.8354L15.9021 15.8361C15.8247 15.9136 15.7328 15.975 15.6316 16.017C15.5305 16.0589 15.422 16.0805 15.3125 16.0805C15.203 16.0805 15.0945 16.0589 14.9934 16.017C14.8922 15.975 14.8003 15.9136 14.7229 15.8361L14.7226 15.8357L14.6726 15.7857L14.6726 15.7857L14.6661 15.7793C14.3506 15.4707 13.95 15.2638 13.5158 15.185C13.0832 15.1066 12.637 15.1591 12.2344 15.3358C11.8402 15.5056 11.5041 15.7866 11.2671 16.1445C11.0293 16.5036 10.9017 16.9243 10.9 17.355L10.9 17.3583V17.5C10.9 17.721 10.8122 17.933 10.6559 18.0893C10.4996 18.2455 10.2877 18.3333 10.0667 18.3333C9.84565 18.3333 9.63369 18.2455 9.47741 18.0893C9.32113 17.933 9.23333 17.721 9.23333 17.5V17.425L9.2331 17.4055C9.22274 16.9625 9.07935 16.5329 8.82157 16.1725C8.56889 15.8192 8.21777 15.5484 7.81231 15.3938C7.41497 15.2241 6.97635 15.1745 6.55083 15.2517C6.11667 15.3304 5.71604 15.5374 5.40061 15.8459L5.40058 15.8459L5.39407 15.8524L5.34407 15.9024L5.34375 15.9027C5.26636 15.9802 5.17445 16.0417 5.07328 16.0836C4.97212 16.1256 4.86368 16.1471 4.75417 16.1471C4.64465 16.1471 4.53622 16.1256 4.43505 16.0836C4.33388 16.0417 4.24198 15.9802 4.16458 15.9027L4.16393 15.9021C4.08645 15.8247 4.02498 15.7328 3.98304 15.6316C3.94111 15.5305 3.91952 15.422 3.91952 15.3125C3.91952 15.203 3.94111 15.0945 3.98304 14.9934C4.02498 14.8922 4.08645 14.8003 4.16393 14.7229L4.16425 14.7226L4.21425 14.6726L4.21429 14.6726L4.22072 14.6661C4.52927 14.3506 4.73625 13.95 4.81497 13.5158C4.89342 13.0831 4.8409 12.6369 4.66418 12.2343C4.49433 11.8402 4.21334 11.5041 3.85551 11.2671C3.49644 11.0293 3.07566 10.9017 2.64499 10.9V10.9H2.64167H2.5C2.27899 10.9 2.06702 10.8122 1.91074 10.6559C1.75446 10.4996 1.66667 10.2877 1.66667 10.0667C1.66667 9.84565 1.75446 9.63369 1.91074 9.47741C2.06702 9.32113 2.27899 9.23333 2.5 9.23333H2.575L2.59449 9.2331C3.03748 9.22274 3.46712 9.07935 3.82754 8.82157C4.18081 8.56889 4.45157 8.21777 4.60621 7.81231C4.77594 7.41497 4.82546 6.97636 4.7483 6.55083C4.66958 6.11667 4.4626 5.71604 4.15405 5.40061L4.15409 5.40058L4.14759 5.39408L4.09759 5.34408L4.09726 5.34375C4.01978 5.26636 3.95831 5.17445 3.91638 5.07328C3.87444 4.97212 3.85286 4.86368 3.85286 4.75417C3.85286 4.64465 3.87444 4.53621 3.91638 4.43505C3.95831 4.33388 4.01978 4.24198 4.09726 4.16458L4.09792 4.16393C4.17531 4.08645 4.26722 4.02498 4.36838 3.98304C4.46955 3.94111 4.57799 3.91952 4.6875 3.91952C4.79701 3.91952 4.90545 3.94111 5.00662 3.98304C5.10778 4.02498 5.19969 4.08645 5.27708 4.16393L5.27741 4.16426L5.32741 4.21426L5.32737 4.21429L5.33395 4.22072C5.64937 4.52927 6.05 4.73625 6.48417 4.81497C6.8611 4.88331 7.24831 4.85226 7.60801 4.7263C7.68368 4.71641 7.75781 4.69615 7.82828 4.66595C8.22413 4.49629 8.56173 4.21459 8.79953 3.85551C9.03733 3.49644 9.16494 3.07566 9.16666 2.64499H9.16667V2.64167V2.5C9.16667 2.27899 9.25446 2.06702 9.41074 1.91074ZM16.9291 12.8365L16.1667 12.5L16.9326 12.8283C16.9742 12.7312 17.0433 12.6484 17.1314 12.59C17.2191 12.5319 17.3219 12.5007 17.4271 12.5H17.5C18.163 12.5 18.7989 12.2366 19.2678 11.7678C19.7366 11.2989 20 10.663 20 10C20 9.33696 19.7366 8.70107 19.2678 8.23223C18.7989 7.76339 18.163 7.5 17.5 7.5H17.3604C17.2552 7.49934 17.1525 7.46806 17.0647 7.40996C17.0056 7.37082 16.9551 7.32066 16.9156 7.26256C16.9038 7.20577 16.8859 7.15023 16.8624 7.09686C16.8187 6.99785 16.8057 6.88801 16.825 6.78152C16.8441 6.67618 16.8939 6.5789 16.9683 6.50192L17.0139 6.45625L17.0143 6.45592C17.2465 6.22381 17.4308 5.9482 17.5566 5.64485C17.6824 5.34136 17.7471 5.01604 17.7471 4.6875C17.7471 4.35896 17.6824 4.03364 17.5566 3.73015C17.4309 3.42694 17.2467 3.15145 17.0146 2.91941C16.7824 2.68697 16.5067 2.50257 16.2032 2.37676C15.8997 2.25095 15.5744 2.18619 15.2458 2.18619C14.9173 2.18619 14.592 2.25095 14.2885 2.37676C13.985 2.50257 13.7093 2.68696 13.4771 2.91941L13.4314 2.96509C13.3544 3.0394 13.2571 3.08928 13.1518 3.10837C13.0453 3.12768 12.9355 3.11465 12.8365 3.07095L12.8365 3.0709L12.8283 3.06738C12.7312 3.02577 12.6484 2.95667 12.59 2.8686C12.5319 2.78087 12.5007 2.67812 12.5 2.57292V2.5C12.5 1.83696 12.2366 1.20107 11.7678 0.732233C11.2989 0.263392 10.663 0 10 0C9.33696 0 8.70107 0.263392 8.23223 0.732233C7.76339 1.20107 7.5 1.83696 7.5 2.5V2.63958C7.49934 2.74479 7.46806 2.84753 7.40996 2.93526C7.37082 2.99436 7.32066 3.04491 7.26256 3.08435C7.20577 3.09624 7.15023 3.11406 7.09686 3.13761C6.99785 3.18131 6.88801 3.19435 6.78152 3.17504C6.67618 3.15594 6.5789 3.10607 6.50192 3.03175L6.45625 2.98607C6.22407 2.75363 5.94835 2.56923 5.64485 2.44342C5.34136 2.31761 5.01604 2.25286 4.6875 2.25286C4.35896 2.25286 4.03364 2.31761 3.73015 2.44342C3.4268 2.56917 3.15119 2.75346 2.91908 2.98574C2.68679 3.21786 2.50251 3.49346 2.37676 3.79682C2.25095 4.10031 2.18619 4.42563 2.18619 4.75417C2.18619 5.08271 2.25095 5.40802 2.37676 5.71152C2.50257 6.01501 2.68696 6.29073 2.91941 6.52292L2.96508 6.56859C3.0394 6.64557 3.08927 6.74285 3.10837 6.84818C3.12768 6.95468 3.11465 7.06451 3.07095 7.16353C3.06386 7.17959 3.05728 7.19587 3.05122 7.21235C3.0137 7.31436 2.94636 7.40272 2.85796 7.46595C2.7716 7.52772 2.66903 7.56271 2.56303 7.56667H2.5C1.83696 7.56667 1.20107 7.83006 0.732233 8.2989C0.263392 8.76774 0 9.40363 0 10.0667C0 10.7297 0.263392 11.3656 0.732233 11.8344C1.20107 12.3033 1.83696 12.5667 2.5 12.5667H2.63958C2.74479 12.5673 2.84753 12.5986 2.93526 12.6567C3.02334 12.715 3.09244 12.7978 3.13405 12.8949L3.13401 12.895L3.13761 12.9031C3.18131 13.0022 3.19435 13.112 3.17504 13.2185C3.15594 13.3238 3.10607 13.4211 3.03176 13.4981L2.98607 13.5437C2.75363 13.7759 2.56923 14.0517 2.44342 14.3551C2.31761 14.6586 2.25286 14.984 2.25286 15.3125C2.25286 15.641 2.31761 15.9664 2.44342 16.2698C2.56923 16.5733 2.75363 16.8491 2.98607 17.0813C3.21812 17.3134 3.49361 17.4976 3.79682 17.6232C4.10031 17.7491 4.42563 17.8138 4.75417 17.8138C5.08271 17.8138 5.40802 17.7491 5.71152 17.6232C6.01487 17.4975 6.29048 17.3132 6.5226 17.0809L6.52292 17.0806L6.56858 17.0349C6.64556 16.9606 6.74285 16.9107 6.84818 16.8916C6.95468 16.8723 7.06451 16.8854 7.16353 16.9291C7.17959 16.9361 7.19587 16.9427 7.21235 16.9488C7.31436 16.9863 7.40272 17.0536 7.46595 17.142C7.52772 17.2284 7.56271 17.331 7.56667 17.437V17.5C7.56667 18.163 7.83006 18.7989 8.2989 19.2678C8.76774 19.7366 9.40362 20 10.0667 20C10.7297 20 11.3656 19.7366 11.8344 19.2678C12.3033 18.7989 12.5667 18.163 12.5667 17.5V17.3604C12.5673 17.2552 12.5986 17.1525 12.6567 17.0647C12.715 16.9767 12.7978 16.9076 12.8949 16.8659L12.895 16.866L12.9031 16.8624C13.0022 16.8187 13.112 16.8057 13.2185 16.825C13.3238 16.8441 13.4211 16.8939 13.4981 16.9682L13.5437 17.0139L13.5441 17.0143C13.7762 17.2465 14.0518 17.4308 14.3551 17.5566C14.6586 17.6824 14.984 17.7471 15.3125 17.7471C15.641 17.7471 15.9664 17.6824 16.2698 17.5566C16.5732 17.4308 16.8488 17.2465 17.0809 17.0143C17.0808 17.0144 17.0807 17.0145 17.0806 17.0146L16.4917 16.425L17.0813 17.0139C17.0811 17.014 17.081 17.0141 17.0809 17.0143C17.3132 16.7821 17.4975 16.5065 17.6232 16.2032C17.7491 15.8997 17.8138 15.5744 17.8138 15.2458C17.8138 14.9173 17.7491 14.592 17.6232 14.2885C17.4975 13.9851 17.3132 13.7095 17.0809 13.4774L17.0806 13.4771L17.0349 13.4314C16.9606 13.3544 16.9107 13.2571 16.8916 13.1518C16.8723 13.0453 16.8854 12.9355 16.9291 12.8365ZM8.33333 10C8.33333 9.07952 9.07952 8.33333 10 8.33333C10.9205 8.33333 11.6667 9.07952 11.6667 10C11.6667 10.9205 10.9205 11.6667 10 11.6667C9.07952 11.6667 8.33333 10.9205 8.33333 10ZM10 6.66667C8.15905 6.66667 6.66667 8.15905 6.66667 10C6.66667 11.8409 8.15905 13.3333 10 13.3333C11.8409 13.3333 13.3333 11.8409 13.3333 10C13.3333 8.15905 11.8409 6.66667 10 6.66667Z" fill="#5F758A"/>
</svg>
