<svg width="16" height="16" viewBox="0 0 16 16" fill="none" xmlns="http://www.w3.org/2000/svg">
<path d="M6.28273 11.3131L6.01293 11.0446L6.01357 11.0439L4.95607 9.98644L4.95294 9.98956L4.68744 9.72531C4.40968 9.44115 4.31707 9.03325 4.45391 8.66034C5.07414 7.12245 6.02373 5.38089 7.60357 3.80105L7.6036 3.80102C9.64565 1.75861 11.5268 1.1479 12.866 1.02577C13.5408 0.964237 14.0889 1.0258 14.4631 1.10059C14.6068 1.12928 14.7246 1.15988 14.8138 1.1861C14.84 1.27538 14.8706 1.39319 14.8993 1.5368C14.974 1.9111 15.0355 2.45915 14.974 3.13393C14.8517 4.47317 14.241 6.35439 12.199 8.39644L12.1987 8.39668C10.8205 9.77672 9.16594 10.8495 7.34366 11.5446C6.96341 11.686 6.5582 11.5935 6.28674 11.3171L6.28676 11.3171L6.28273 11.3131ZM3.6712 6.19689C3.40665 6.68621 3.16518 7.1918 2.95143 7.71304L1.59947 7.13766L3.6712 6.19689ZM14.7471 0.987525L14.7476 0.988764L14.7474 0.988268L14.7471 0.987525ZM9.80312 12.3288L8.86235 14.4005L8.28697 13.0486C8.80821 12.8348 9.3138 12.5934 9.80312 12.3288ZM12.3833 3.62123L12.3833 3.62122L12.3811 3.61894C11.6008 2.83868 10.3317 2.83868 9.55146 3.61894C8.7712 4.3992 8.7712 5.66829 9.55146 6.44855C10.3317 7.22881 11.6008 7.22881 12.3811 6.44855C13.1642 5.66542 13.1502 4.39805 12.3833 3.62123ZM4.42628 11.9309L1.35071 15H1.00001V14.6496L4.07126 11.5784L4.42628 11.9309Z" stroke="#293846"/>
</svg>
