<svg width="26" height="17" viewBox="0 0 26 17" fill="none" xmlns="http://www.w3.org/2000/svg">
<g filter="url(#filter0_i_1014_1011)">
<path d="M8.99749 16.2107C7.5 15.8372 6.667 14.6465 6.66382 12.8803C6.66382 12.316 6.70356 12.0457 6.84504 11.6817C7.19001 10.7915 8.10567 10.1206 9.30907 9.87262C9.90839 9.75021 10.0928 9.61827 10.0928 9.31145C10.0928 9.21607 10.1643 8.92993 10.2518 8.67717C10.6476 7.52623 11.3804 6.56764 12.1626 6.17658C12.9813 5.76643 13.3962 5.67423 14.3866 5.679C15.795 5.68695 16.4961 5.99217 17.4785 7.02388L18.019 7.5914L18.5023 7.42449C20.8439 6.61374 23.1792 7.9936 23.3683 10.3002L23.4192 10.9314L23.8802 11.0967C25.1981 11.5688 25.8165 12.5592 25.7052 14.017C25.6321 14.9692 25.1869 15.7306 24.4811 16.1074L24.1489 16.2854L16.7759 16.2998C11.1102 16.3109 9.30907 16.2902 8.99749 16.2123V16.2107ZM2.84696 15.1568C1.94878 14.931 0.996556 14.0917 0.549852 13.1331C0.297091 12.5894 0.282784 12.5083 0.282784 11.5466C0.282784 10.6309 0.305039 10.4846 0.505341 10.03C0.712409 9.55947 1.02337 9.14197 1.41488 8.80883C1.8064 8.47568 2.26829 8.23555 2.76589 8.10647C2.98209 8.04924 3.18398 7.95703 3.21577 7.90298C3.24756 7.84893 3.28413 7.55166 3.29526 7.24326C3.36679 5.32609 4.55747 3.63624 6.2187 3.09416C7.11688 2.80165 8.29485 2.77304 9.27092 3.18636C9.58091 3.31671 9.54594 3.34533 10.2009 2.43761C10.5888 1.9003 11.3216 1.33277 11.9623 0.99258C12.6538 0.62536 13.3723 0.456853 14.2324 0.458442C16.636 0.464801 18.7073 2.05291 19.4736 4.47878C19.7184 5.25296 19.7057 5.47075 19.4179 5.47711C19.1464 5.50911 18.8779 5.56334 18.6151 5.63926L18.0413 5.79664L17.5183 5.24342C16.043 3.68552 13.6378 3.34851 11.5919 4.4136C10.7807 4.83385 10.0997 5.46762 9.62224 6.24652C9.26933 6.81404 8.81785 7.87437 8.81785 8.13667C8.81785 8.32266 8.67478 8.41646 8.06434 8.62788C6.17419 9.28284 5.07094 10.7962 5.07253 12.7325C5.07253 13.4367 5.24422 14.2999 5.48268 14.7927C5.57329 14.9787 5.62257 15.1552 5.59395 15.1854C5.52083 15.2633 3.16967 15.2362 2.84378 15.1552L2.84696 15.1568Z" fill="#7B61FF"/>
</g>
<defs>
<filter id="filter0_i_1014_1011" x="0.282784" y="0.458431" width="25.4351" height="19.8441" filterUnits="userSpaceOnUse" color-interpolation-filters="sRGB">
<feFlood flood-opacity="0" result="BackgroundImageFix"/>
<feBlend mode="normal" in="SourceGraphic" in2="BackgroundImageFix" result="shape"/>
<feColorMatrix in="SourceAlpha" type="matrix" values="0 0 0 0 0 0 0 0 0 0 0 0 0 0 0 0 0 0 127 0" result="hardAlpha"/>
<feOffset dy="4"/>
<feGaussianBlur stdDeviation="2"/>
<feComposite in2="hardAlpha" operator="arithmetic" k2="-1" k3="1"/>
<feColorMatrix type="matrix" values="0 0 0 0 0.704114 0 0 0 0 0.645833 0 0 0 0 1 0 0 0 1 0"/>
<feBlend mode="normal" in2="shape" result="effect1_innerShadow_1014_1011"/>
</filter>
</defs>
</svg>
