<svg width="20" height="20" viewBox="0 0 20 20" fill="none" xmlns="http://www.w3.org/2000/svg">
<path fill-rule="evenodd" clip-rule="evenodd" d="M9.99935 2.66675C5.94926 2.66675 2.66602 5.94999 2.66602 10.0001C2.66602 14.0502 5.94926 17.3334 9.99935 17.3334C14.0494 17.3334 17.3327 14.0502 17.3327 10.0001C17.3327 5.94999 14.0494 2.66675 9.99935 2.66675ZM0.666016 10.0001C0.666016 4.84542 4.84469 0.666748 9.99935 0.666748C15.154 0.666748 19.3327 4.84542 19.3327 10.0001C19.3327 15.1547 15.154 19.3334 9.99935 19.3334C4.84469 19.3334 0.666016 15.1547 0.666016 10.0001ZM8.99935 6.66675C8.99935 6.11446 9.44706 5.66675 9.99935 5.66675H10.0077C10.56 5.66675 11.0077 6.11446 11.0077 6.66675C11.0077 7.21903 10.56 7.66675 10.0077 7.66675H9.99935C9.44706 7.66675 8.99935 7.21903 8.99935 6.66675ZM9.99935 9.00008C10.5516 9.00008 10.9993 9.4478 10.9993 10.0001V13.3334C10.9993 13.8857 10.5516 14.3334 9.99935 14.3334C9.44706 14.3334 8.99935 13.8857 8.99935 13.3334V10.0001C8.99935 9.4478 9.44706 9.00008 9.99935 9.00008Z" fill="#253545"/>
</svg>
