<svg width="20" height="20" viewBox="0 0 20 20" fill="none" xmlns="http://www.w3.org/2000/svg">
<path fill-rule="evenodd" clip-rule="evenodd" d="M4.96284 0.666668C4.26198 0.666668 3.60518 0.965808 3.13235 1.47275C2.66172 1.97733 2.40833 2.6477 2.40833 3.33333V16.6667C2.40833 17.3523 2.66172 18.0227 3.13235 18.5273C3.60518 19.0342 4.26198 19.3333 4.96284 19.3333H14.29C14.9908 19.3333 15.6476 19.0342 16.1205 18.5273C16.5911 18.0227 16.8445 17.3523 16.8445 16.6667V6.66667C16.8445 6.41349 16.7484 6.16974 16.5758 5.98459L11.9122 0.984593C11.7231 0.78181 11.4582 0.666668 11.1809 0.666668H4.96284ZM4.59492 2.8369C4.70514 2.71872 4.83914 2.66667 4.96284 2.66667H10.1809V6.66667C10.1809 7.21895 10.6286 7.66667 11.1809 7.66667H14.8445V16.6667C14.8445 16.8651 14.7703 17.0426 14.6579 17.1631C14.5477 17.2813 14.4137 17.3333 14.29 17.3333H4.96284C4.83914 17.3333 4.70515 17.2813 4.59492 17.1631C4.48249 17.0426 4.40833 16.8651 4.40833 16.6667V3.33333C4.40833 3.13492 4.48249 2.95743 4.59492 2.8369ZM13.5443 5.66667L12.1809 4.20493V5.66667H13.5443ZM9.62632 9C10.1786 9 10.6263 9.44772 10.6263 10V11.5H11.958C12.5103 11.5 12.958 11.9477 12.958 12.5C12.958 13.0523 12.5103 13.5 11.958 13.5H10.6263V15C10.6263 15.5523 10.1786 16 9.62632 16C9.07404 16 8.62632 15.5523 8.62632 15V13.5H7.29447C6.74219 13.5 6.29447 13.0523 6.29447 12.5C6.29447 11.9477 6.74219 11.5 7.29447 11.5H8.62632V10C8.62632 9.44772 9.07404 9 9.62632 9Z" fill="#5F758A"/>
</svg>
