<svg width="16" height="16" viewBox="0 0 16 16" fill="none" xmlns="http://www.w3.org/2000/svg">
<path d="M13.0933 4.75H15V6.75H9.25V5.75V5.25H8.75H7.25H6.75V5.75V6.75H1V4.75H2.90675H3.58932L3.38347 4.09921C3.3033 3.84576 3.25 3.52756 3.25 3.125C3.25 1.95364 4.20364 1 5.375 1C5.87466 1 6.30027 1.21717 6.67668 1.5873C7.05963 1.96385 7.37155 2.48134 7.61686 3.02074L8.0816 4.04264L8.53032 3.0136C8.78016 2.44066 9.08478 1.92367 9.44557 1.55645C9.79998 1.19571 10.1859 1 10.625 1C11.7964 1 12.75 1.95364 12.75 3.125H12.7499L12.7501 3.13304C12.7554 3.46228 12.7096 3.79035 12.6146 4.1056L12.4202 4.75H13.0933ZM7.0235 4.75H7.7138L7.49858 4.09411C7.30894 3.5162 7.04618 2.90758 6.72859 2.43234C6.56994 2.19495 6.38517 1.97193 6.1727 1.80385C5.95993 1.63555 5.68993 1.5 5.375 1.5C4.47861 1.5 3.75 2.22861 3.75 3.125C3.75 3.73174 3.87205 4.19207 4.18079 4.47688C4.47971 4.75265 4.84246 4.75078 4.98193 4.75006C4.98845 4.75003 4.99448 4.75 5 4.75H7.0235ZM8.66654 4.09606L8.45492 4.75H9.14225H11C11.0055 4.75 11.0115 4.75003 11.0181 4.75006C11.1575 4.75078 11.5203 4.75265 11.8192 4.47688C12.128 4.19207 12.25 3.73174 12.25 3.125C12.25 2.22861 11.5214 1.5 10.625 1.5C10.3205 1.5 10.0704 1.64857 9.88692 1.81013C9.70089 1.97398 9.53821 2.18994 9.39685 2.42001C9.11304 2.88196 8.86399 3.48589 8.66654 4.09606ZM2.79289 14.7071L2.43934 15.0607L2.79289 14.7071C2.60536 14.5196 2.5 14.2652 2.5 14V8.5H2.75H6.75V15H3.5C3.23478 15 2.98043 14.8946 2.79289 14.7071ZM9.25 15V8.5H12.5H13.5V14C13.5 14.2652 13.3946 14.5196 13.2071 14.7071C13.0196 14.8946 12.7652 15 12.5 15H9.25Z" fill="#293846" stroke="#F2F2F2"/>
</svg>
