<svg width="18" height="18" viewBox="0 0 18 18" fill="none" xmlns="http://www.w3.org/2000/svg">
<path fill-rule="evenodd" clip-rule="evenodd" d="M2.33335 4.00001C2.33335 3.07953 3.07955 2.33334 4.00002 2.33334C4.9205 2.33334 5.66669 3.07953 5.66669 4.00001C5.66669 4.92048 4.9205 5.66667 4.00002 5.66667C3.07955 5.66667 2.33335 4.92048 2.33335 4.00001ZM4.83335 7.22832C6.27104 6.85829 7.33335 5.5532 7.33335 4.00001C7.33335 2.15906 5.84097 0.666672 4.00002 0.666672C2.15907 0.666672 0.666687 2.15906 0.666687 4.00001C0.666687 5.5532 1.729 6.85829 3.16669 7.22832V16.5C3.16669 16.9602 3.53978 17.3333 4.00002 17.3333C4.46026 17.3333 4.83335 16.9602 4.83335 16.5V7.22832ZM12.3334 14C12.3334 13.0795 13.0795 12.3333 14 12.3333C14.9205 12.3333 15.6667 13.0795 15.6667 14C15.6667 14.9205 14.9205 15.6667 14 15.6667C13.0795 15.6667 12.3334 14.9205 12.3334 14ZM10.6667 14C10.6667 12.4468 11.729 11.1417 13.1667 10.7717V5.66667C13.1667 5.44566 13.0789 5.2337 12.9226 5.07742C12.7663 4.92114 12.5544 4.83334 12.3334 4.83334H9.83335C9.37312 4.83334 9.00002 4.46024 9.00002 4.00001C9.00002 3.53977 9.37312 3.16667 9.83335 3.16667H12.3334C12.9964 3.16667 13.6323 3.43006 14.1011 3.8989C14.57 4.36775 14.8334 5.00363 14.8334 5.66667V10.7717C16.271 11.1417 17.3334 12.4468 17.3334 14C17.3334 15.841 15.841 17.3333 14 17.3333C12.1591 17.3333 10.6667 15.841 10.6667 14Z" fill="#5F758A"/>
</svg>
