<svg width="16" height="20" viewBox="0 0 16 20" fill="none" xmlns="http://www.w3.org/2000/svg">
<path fill-rule="evenodd" clip-rule="evenodd" d="M1.23223 1.56558C1.70107 1.09674 2.33696 0.833344 3 0.833344H9.66667C9.88768 0.833344 10.0996 0.921141 10.2559 1.07742L15.2559 6.07742C15.4122 6.2337 15.5 6.44566 15.5 6.66668V16.6667C15.5 17.3297 15.2366 17.9656 14.7678 18.4344C14.2989 18.9033 13.663 19.1667 13 19.1667H3C2.33696 19.1667 1.70107 18.9033 1.23223 18.4344C0.763392 17.9656 0.5 17.3297 0.5 16.6667V3.33334C0.5 2.6703 0.763392 2.03442 1.23223 1.56558ZM3 2.50001C2.77899 2.50001 2.56702 2.58781 2.41074 2.74409C2.25446 2.90037 2.16667 3.11233 2.16667 3.33334V16.6667C2.16667 16.8877 2.25446 17.0996 2.41074 17.2559C2.56702 17.4122 2.77899 17.5 3 17.5H13C13.221 17.5 13.433 17.4122 13.5893 17.2559C13.7455 17.0996 13.8333 16.8877 13.8333 16.6667V7.50001H9.66667C9.20643 7.50001 8.83333 7.12691 8.83333 6.66668V2.50001H3ZM10.5 3.67852L12.6548 5.83334H10.5V3.67852ZM3.83333 7.50001C3.83333 7.03977 4.20643 6.66668 4.66667 6.66668H6.33333C6.79357 6.66668 7.16667 7.03977 7.16667 7.50001C7.16667 7.96025 6.79357 8.33334 6.33333 8.33334H4.66667C4.20643 8.33334 3.83333 7.96025 3.83333 7.50001ZM3.83333 10.8333C3.83333 10.3731 4.20643 10 4.66667 10H11.3333C11.7936 10 12.1667 10.3731 12.1667 10.8333C12.1667 11.2936 11.7936 11.6667 11.3333 11.6667H4.66667C4.20643 11.6667 3.83333 11.2936 3.83333 10.8333ZM3.83333 14.1667C3.83333 13.7064 4.20643 13.3333 4.66667 13.3333H11.3333C11.7936 13.3333 12.1667 13.7064 12.1667 14.1667C12.1667 14.6269 11.7936 15 11.3333 15H4.66667C4.20643 15 3.83333 14.6269 3.83333 14.1667Z" fill="#595FED"/>
</svg>
