<svg width="28" height="22" viewBox="0 0 28 22" fill="none" xmlns="http://www.w3.org/2000/svg">
<g filter="url(#filter0_i_1014_997)">
<path d="M0.353241 12.4666L8.29265 16.7761L13.831 12.9658L5.84652 8.88478L0.353241 12.4666ZM27.2787 5.2558L19.3693 0.993431L13.831 4.80621L21.8004 8.88478L13.831 12.9658L19.3693 16.7761L27.2787 12.5138L21.8004 8.88478L27.2787 5.2558ZM13.846 13.7805L8.29265 17.5933L5.90662 16.3141V17.7498L13.846 21.6843L21.7704 17.7498V16.3141L19.3994 17.5933L13.846 13.7805ZM8.29265 0.993431L0.353241 5.21854L5.84652 8.88478L13.831 4.80621L8.29265 0.993431Z" fill="#007EE5"/>
</g>
<defs>
<filter id="filter0_i_1014_997" x="0.353241" y="0.993431" width="26.9255" height="24.6909" filterUnits="userSpaceOnUse" color-interpolation-filters="sRGB">
<feFlood flood-opacity="0" result="BackgroundImageFix"/>
<feBlend mode="normal" in="SourceGraphic" in2="BackgroundImageFix" result="shape"/>
<feColorMatrix in="SourceAlpha" type="matrix" values="0 0 0 0 0 0 0 0 0 0 0 0 0 0 0 0 0 0 127 0" result="hardAlpha"/>
<feOffset dy="4"/>
<feGaussianBlur stdDeviation="2"/>
<feComposite in2="hardAlpha" operator="arithmetic" k2="-1" k3="1"/>
<feColorMatrix type="matrix" values="0 0 0 0 0.4625 0 0 0 0 0.757182 0 0 0 0 1 0 0 0 1 0"/>
<feBlend mode="normal" in2="shape" result="effect1_innerShadow_1014_997"/>
</filter>
</defs>
</svg>
