<svg width="20" height="18" viewBox="0 0 20 18" fill="none" xmlns="http://www.w3.org/2000/svg">
<path fill-rule="evenodd" clip-rule="evenodd" d="M5 4.83334C5 3.45263 6.11929 2.33334 7.5 2.33334C8.88071 2.33334 10 3.45263 10 4.83334C10 6.21405 8.88071 7.33334 7.5 7.33334C6.11929 7.33334 5 6.21405 5 4.83334ZM7.5 0.666672C5.19881 0.666672 3.33333 2.53215 3.33333 4.83334C3.33333 7.13452 5.19881 9 7.5 9C9.80119 9 11.6667 7.13452 11.6667 4.83334C11.6667 2.53215 9.80119 0.666672 7.5 0.666672ZM4.16667 10.6667C3.0616 10.6667 2.00179 11.1057 1.22039 11.8871C0.438987 12.6685 0 13.7283 0 14.8333V16.5C0 16.9602 0.373096 17.3333 0.833333 17.3333C1.29357 17.3333 1.66667 16.9602 1.66667 16.5V14.8333C1.66667 14.1703 1.93006 13.5344 2.3989 13.0656C2.86774 12.5967 3.50363 12.3333 4.16667 12.3333H10.8333C11.4964 12.3333 12.1323 12.5967 12.6011 13.0656C13.0699 13.5344 13.3333 14.1703 13.3333 14.8333V16.5C13.3333 16.9602 13.7064 17.3333 14.1667 17.3333C14.6269 17.3333 15 16.9602 15 16.5V14.8333C15 13.7283 14.561 12.6685 13.7796 11.8871C12.9982 11.1057 11.9384 10.6667 10.8333 10.6667H4.16667ZM15.8598 11.4C15.9749 10.9544 16.4294 10.6864 16.875 10.8015C17.7689 11.0323 18.5608 11.5534 19.1264 12.283C19.692 13.0127 19.9993 13.9095 20 14.8327V14.8333V16.5C20 16.9602 19.6269 17.3333 19.1667 17.3333C18.7064 17.3333 18.3333 16.9602 18.3333 16.5V14.834V14.8337C18.3329 14.2799 18.1485 13.7419 17.8092 13.3042C17.4698 12.8664 16.9947 12.5537 16.4583 12.4152C16.0127 12.3002 15.7447 11.8456 15.8598 11.4ZM13.54 0.801051C13.0942 0.686894 12.6402 0.955788 12.526 1.40164C12.4119 1.8475 12.6808 2.30148 13.1266 2.41563C13.6644 2.55332 14.141 2.86607 14.4814 3.30458C14.8218 3.74308 15.0065 4.2824 15.0065 4.83751C15.0065 5.39261 14.8218 5.93193 14.4814 6.37044C14.141 6.80895 13.6644 7.1217 13.1266 7.25938C12.6808 7.37354 12.4119 7.82752 12.526 8.27338C12.6402 8.71923 13.0942 8.98812 13.54 8.87397C14.4363 8.64449 15.2307 8.12324 15.798 7.39239C16.3653 6.66155 16.6732 5.76269 16.6732 4.83751C16.6732 3.91233 16.3653 3.01347 15.798 2.28262C15.2307 1.55178 14.4363 1.03053 13.54 0.801051Z" fill="#5F758A"/>
</svg>
