<svg width="19" height="16" viewBox="0 0 19 16" fill="none" xmlns="http://www.w3.org/2000/svg">
<path fill-rule="evenodd" clip-rule="evenodd" d="M19 7V3C19 1.34315 17.6569 0 16 0H3C1.34315 0 0 1.34315 0 3V7H19ZM16 2H3C2.44772 2 2 2.44772 2 3V5H17V3C17 2.44772 16.5523 2 16 2Z" fill="#595FED"/>
<path fill-rule="evenodd" clip-rule="evenodd" d="M0 9V13C0 14.6569 1.34315 16 3 16H16C17.6569 16 19 14.6569 19 13V9H0ZM17 13V11H2V13C2 13.5523 2.44772 14 3 14H16C16.5523 14 17 13.5523 17 13Z" fill="#595FED"/>
</svg>
