<svg width="19" height="19" viewBox="0 0 19 19" fill="none" xmlns="http://www.w3.org/2000/svg">
<path fill-rule="evenodd" clip-rule="evenodd" d="M0 3C0 1.34315 1.34315 0 3 0H5.63636C7.29322 0 8.63636 1.34315 8.63636 3V8.63636H3C1.34315 8.63636 0 7.29322 0 5.63636V3ZM3 2H5.63636C6.18865 2 6.63636 2.44771 6.63636 3V6.63636H3C2.44771 6.63636 2 6.18865 2 5.63636V3C2 2.44771 2.44771 2 3 2Z" fill="#293846"/>
<path fill-rule="evenodd" clip-rule="evenodd" d="M10.3635 3C10.3635 1.34315 11.7067 0 13.3635 0H15.9999C17.6567 0 18.9999 1.34315 18.9999 3V5.63636C18.9999 7.29322 17.6567 8.63636 15.9999 8.63636H10.3635V3ZM13.3635 2H15.9999C16.5522 2 16.9999 2.44771 16.9999 3V5.63636C16.9999 6.18865 16.5522 6.63636 15.9999 6.63636H12.3635V3C12.3635 2.44771 12.8112 2 13.3635 2Z" fill="#293846"/>
<path fill-rule="evenodd" clip-rule="evenodd" d="M3 10.3636C1.34315 10.3636 0 11.7068 0 13.3636V16C0 17.6569 1.34315 19 3 19H5.63636C7.29322 19 8.63636 17.6569 8.63636 16V10.3636H3ZM6.63636 12.3636H3C2.44771 12.3636 2 12.8114 2 13.3636V16C2 16.5523 2.44771 17 3 17H5.63636C6.18865 17 6.63636 16.5523 6.63636 16V12.3636Z" fill="#293846"/>
<path fill-rule="evenodd" clip-rule="evenodd" d="M10.3635 10.3636H15.9999C17.6567 10.3636 18.9999 11.7068 18.9999 13.3636V16C18.9999 17.6569 17.6567 19 15.9999 19H13.3635C11.7067 19 10.3635 17.6569 10.3635 16V10.3636ZM12.3635 12.3636H15.9999C16.5522 12.3636 16.9999 12.8114 16.9999 13.3636V16C16.9999 16.5523 16.5522 17 15.9999 17H13.3635C12.8112 17 12.3635 16.5523 12.3635 16V12.3636Z" fill="#293846"/>
</svg>
